<?xml version="1.0" encoding="UTF-8" standalone="no"?>
<!DOCTYPE svg PUBLIC "-//W3C//DTD SVG 1.1//EN" "http://www.w3.org/Graphics/SVG/1.1/DTD/svg11.dtd">
<svg width="100%" height="100%" viewBox="0 0 727 237" version="1.1" xmlns="http://www.w3.org/2000/svg" xmlns:xlink="http://www.w3.org/1999/xlink" xml:space="preserve" xmlns:serif="http://www.serif.com/" style="fill-rule:evenodd;clip-rule:evenodd;stroke-linejoin:round;stroke-miterlimit:2;">
    <g transform="matrix(2.66667,0,0,2.66667,89.1275,41.6539)">
        <path d="M0,-1.24L0,0.745L1.819,0.745L1.819,-1.24C1.819,-1.651 1.412,-1.985 0.91,-1.985C0.407,-1.985 0,-1.651 0,-1.24" style="fill:rgb(208,158,37);fill-rule:nonzero;"/>
    </g>
    <g transform="matrix(2.66667,0,0,2.66667,142.495,41.6539)">
        <path d="M0,-1.24L0,0.745L1.819,0.745L1.819,-1.24C1.819,-1.651 1.412,-1.985 0.91,-1.985C0.407,-1.985 0,-1.651 0,-1.24" style="fill:rgb(208,158,37);fill-rule:nonzero;"/>
    </g>
    <g transform="matrix(2.66667,0,0,2.66667,106.916,33.1272)">
        <path d="M0,3.942L-1.819,0L-3.639,3.942L0,3.942Z" style="fill:rgb(208,158,37);fill-rule:nonzero;"/>
    </g>
    <g transform="matrix(2.66667,0,0,2.66667,139.26,33.1272)">
        <path d="M0,3.942L-1.819,0L-3.639,3.942L0,3.942Z" style="fill:rgb(208,158,37);fill-rule:nonzero;"/>
    </g>
    <g transform="matrix(2.66667,0,0,2.66667,112.095,6.86133)">
        <path d="M0,0.303C0.131,0.303 0.246,0.234 0.311,0.13L1.536,-0.086L1.974,2.303C1.767,2.411 1.624,2.626 1.624,2.876L2.922,2.876C2.922,2.586 2.732,2.344 2.471,2.261L2.025,-0.173L3.362,-0.409C3.427,-0.354 3.51,-0.319 3.601,-0.319C3.805,-0.319 3.971,-0.485 3.971,-0.689C3.971,-0.893 3.805,-1.058 3.601,-1.058C3.477,-1.058 3.368,-0.996 3.301,-0.902L1.935,-0.66L1.693,-1.981C1.74,-2.043 1.769,-2.12 1.769,-2.204C1.769,-2.408 1.604,-2.573 1.4,-2.573C1.196,-2.573 1.03,-2.408 1.03,-2.204C1.03,-2.072 1.1,-1.956 1.205,-1.891L1.446,-0.574L0.224,-0.358C0.162,-0.406 0.085,-0.436 0,-0.436C-0.204,-0.436 -0.369,-0.27 -0.369,-0.066C-0.369,0.138 -0.204,0.303 0,0.303" style="fill:rgb(208,158,37);fill-rule:nonzero;"/>
    </g>
    <g transform="matrix(2.66667,0,0,2.66667,151.062,16.1459)">
        <path d="M0,10.31L1.639,10.31L-0.492,4.475L-6.614,0L-8.064,0L-8.064,1.679C-4.151,2.979 -1.099,6.229 0,10.31" style="fill:rgb(208,158,37);fill-rule:nonzero;"/>
    </g>
    <g transform="matrix(2.66667,0,0,2.66667,106.916,39.0709)">
        <path d="M0,-6.884L0,-8.597L-1.443,-8.597L-7.458,-4.122L-9.703,1.713L-7.973,1.713C-6.882,-2.334 -3.869,-5.562 0,-6.884" style="fill:rgb(208,158,37);fill-rule:nonzero;"/>
    </g>
    <g transform="matrix(-0.445534,-2.62918,-2.62918,0.445534,59.4866,197.003)">
        <path d="M-6.898,-8.166C-5.661,-6.125 -4.949,-3.73 -4.949,-1.169C-4.948,1.392 -5.661,3.786 -6.898,5.828C-8.135,3.787 -8.848,1.392 -8.848,-1.169C-8.848,-3.73 -8.136,-6.124 -6.898,-8.166" style="fill:rgb(7,78,162);fill-rule:nonzero;"/>
    </g>
    <g transform="matrix(0.107099,-2.66452,-2.66452,-0.107099,50.4431,184.276)">
        <path d="M-6.991,-6.716C-5.754,-4.674 -5.042,-2.28 -5.041,0.281C-5.041,2.842 -5.754,5.237 -6.991,7.278C-8.228,5.236 -8.94,2.842 -8.941,0.281C-8.941,-2.28 -8.228,-4.675 -6.991,-6.716" style="fill:rgb(7,78,162);fill-rule:nonzero;"/>
    </g>
    <g transform="matrix(0.648107,-2.58671,-2.58671,-0.648107,43.235,170.76)">
        <path d="M-6.787,-5.296C-5.55,-3.255 -4.838,-0.861 -4.837,1.7C-4.837,4.261 -5.55,6.656 -6.787,8.697C-8.024,6.656 -8.736,4.262 -8.736,1.701C-8.737,-0.86 -8.024,-3.255 -6.787,-5.296" style="fill:rgb(7,78,162);fill-rule:nonzero;"/>
    </g>
    <g transform="matrix(1.11844,-2.42078,-2.42078,-1.11844,38.4166,157.866)">
        <path d="M-6.352,-4.062C-5.114,-2.021 -4.402,0.373 -4.402,2.935C-4.402,5.496 -5.115,7.891 -6.352,9.931C-7.589,7.89 -8.301,5.496 -8.301,2.934C-8.301,0.373 -7.589,-2.021 -6.352,-4.062" style="fill:rgb(7,78,162);fill-rule:nonzero;"/>
    </g>
    <g transform="matrix(2.13694,1.59518,1.59518,-2.13694,10.086,150.621)">
        <path d="M1.166,-0.388C3.727,-0.388 6.122,0.324 8.163,1.561C6.122,2.799 3.728,3.511 1.166,3.511C-1.395,3.511 -3.79,2.799 -5.83,1.563C-3.789,0.325 -1.395,-0.387 1.166,-0.388" style="fill:rgb(7,78,162);fill-rule:nonzero;"/>
    </g>
    <g transform="matrix(2.02918,-1.73018,-1.73018,-2.02918,30.5283,130.979)">
        <path d="M-4.54,-1.673C-3.302,0.369 -2.59,2.763 -2.59,5.324C-2.59,7.885 -3.302,10.28 -4.54,12.321C-5.776,10.28 -6.489,7.885 -6.488,5.325C-6.488,2.763 -5.777,0.369 -4.54,-1.673" style="fill:rgb(7,78,162);fill-rule:nonzero;"/>
    </g>
    <g transform="matrix(2.38856,-1.1857,-1.1857,-2.38856,28.6455,118.239)">
        <path d="M-3.111,-0.73C-1.875,1.311 -1.161,3.706 -1.162,6.267C-1.162,8.828 -1.874,11.223 -3.111,13.263C-4.348,11.223 -5.061,8.828 -5.06,6.267C-5.061,3.706 -4.349,1.311 -3.111,-0.73" style="fill:rgb(7,78,162);fill-rule:nonzero;"/>
    </g>
    <g transform="matrix(2.61852,-0.50442,-0.50442,-2.61852,26.4059,101.346)">
        <path d="M-1.324,-0.126C-0.086,1.914 0.626,4.309 0.626,6.87C0.626,9.432 -0.086,11.826 -1.324,13.867C-2.561,11.827 -3.273,9.431 -3.273,6.871C-3.273,4.309 -2.561,1.915 -1.324,-0.126" style="fill:rgb(7,78,162);fill-rule:nonzero;"/>
    </g>
    <g transform="matrix(2.65584,-0.240106,-0.240106,-2.65584,32.612,82.8519)">
        <path d="M-0.63,-0.028C0.607,2.013 1.319,4.407 1.319,6.969C1.32,9.53 0.607,11.924 -0.63,13.965C-1.868,11.924 -2.579,9.529 -2.58,6.969C-2.58,4.407 -1.867,2.013 -0.63,-0.028" style="fill:rgb(7,78,162);fill-rule:nonzero;"/>
    </g>
    <g transform="matrix(1.78636,-1.97991,-1.97991,-1.78636,55.4864,58.5903)">
        <path d="M-1.448,-0.644C1.113,-0.644 3.509,0.069 5.549,1.306C3.508,2.543 1.113,3.255 -1.448,3.256C-4.009,3.256 -6.404,2.543 -8.444,1.306C-6.403,0.069 -4.009,-0.644 -1.448,-0.644" style="fill:rgb(7,78,162);fill-rule:nonzero;"/>
    </g>
    <g transform="matrix(-1.43876,-2.24523,-2.24523,1.43876,23.5749,88.3255)">
        <path d="M-5.891,-10.772C-4.654,-8.73 -3.941,-6.336 -3.942,-3.775C-3.941,-1.214 -4.654,1.181 -5.891,3.222C-7.128,1.18 -7.841,-1.214 -7.84,-3.775C-7.841,-6.336 -7.128,-8.731 -5.891,-10.772" style="fill:rgb(7,78,162);fill-rule:nonzero;"/>
    </g>
    <g transform="matrix(2.45573,-1.03946,-1.03946,-2.45573,52.7331,82.4507)">
        <path d="M-0.76,-0.154C1.801,-0.154 4.196,0.559 6.237,1.795C4.196,3.032 1.801,3.745 -0.76,3.745C-3.321,3.745 -5.716,3.033 -7.756,1.795C-5.715,0.559 -3.321,-0.154 -0.76,-0.154" style="fill:rgb(7,78,162);fill-rule:nonzero;"/>
    </g>
    <g transform="matrix(1.78239,-1.98348,-1.98348,-1.78239,41.7129,115.807)">
        <path d="M-1.45,-0.646C1.111,-0.647 3.506,0.065 5.547,1.303C3.506,2.54 1.111,3.252 -1.45,3.252C-4.01,3.253 -6.405,2.541 -8.447,1.303C-6.406,0.067 -4.011,-0.646 -1.45,-0.646" style="fill:rgb(7,78,162);fill-rule:nonzero;"/>
    </g>
    <g transform="matrix(1.25561,-2.35256,-2.35256,-1.25561,42.5441,133.394)">
        <path d="M-1.72,-1.032C0.841,-1.032 3.235,-0.32 5.276,0.917C3.236,2.154 0.841,2.867 -1.72,2.868C-4.281,2.868 -6.675,2.156 -8.716,0.919C-6.675,-0.319 -4.281,-1.031 -1.72,-1.032" style="fill:rgb(7,78,162);fill-rule:nonzero;"/>
    </g>
    <g transform="matrix(0.639517,-2.58885,-2.58885,-0.639517,47.0211,150.462)">
        <path d="M-1.893,-1.482C0.668,-1.482 3.063,-0.77 5.104,0.468C3.063,1.705 0.668,2.417 -1.893,2.417C-4.454,2.417 -6.848,1.705 -8.889,0.467C-6.848,-0.77 -4.453,-1.482 -1.893,-1.482" style="fill:rgb(7,78,162);fill-rule:nonzero;"/>
    </g>
    <g transform="matrix(0.132007,-2.6634,-2.6634,-0.132007,55.0351,166.303)">
        <path d="M-1.947,-1.853C0.614,-1.853 3.009,-1.14 5.05,0.097C3.008,1.334 0.614,2.047 -1.947,2.046C-4.508,2.046 -6.903,1.334 -8.944,0.096C-6.902,-1.14 -4.508,-1.853 -1.947,-1.853" style="fill:rgb(7,78,162);fill-rule:nonzero;"/>
    </g>
    <g transform="matrix(0.578626,2.60313,2.60313,-0.578626,66.1628,182.505)">
        <path d="M1.903,-1.526C4.464,-1.526 6.859,-0.814 8.9,0.424C6.859,1.66 4.464,2.373 1.903,2.372C-0.658,2.372 -3.053,1.66 -5.094,0.422C-3.053,-0.814 -0.658,-1.527 1.903,-1.526" style="fill:rgb(7,78,162);fill-rule:nonzero;"/>
    </g>
    <g transform="matrix(2.35451,-1.25195,-1.25195,-2.35451,101.724,208.419)">
        <path d="M-3.285,-0.819C-2.048,1.222 -1.335,3.617 -1.335,6.177C-1.336,8.739 -2.048,11.133 -3.285,13.175C-4.522,11.134 -5.234,8.739 -5.234,6.178C-5.235,3.617 -4.522,1.223 -3.285,-0.819" style="fill:rgb(7,78,162);fill-rule:nonzero;"/>
    </g>
    <g transform="matrix(2.66667,0,0,2.66667,153.969,234.494)">
        <path d="M0,-6.153C-2.141,-6.878 -4.337,-7.035 -6.425,-6.706C-8.778,-6.916 -11.159,-6.609 -13.424,-5.806C-15.689,-6.609 -18.07,-6.916 -20.423,-6.706C-22.511,-7.035 -24.707,-6.878 -26.848,-6.153C-29.274,-5.332 -31.313,-3.889 -32.85,-2.063C-30.52,-1.545 -28.023,-1.639 -25.597,-2.46C-23.486,-3.175 -21.668,-4.361 -20.219,-5.86C-18.643,-5.786 -17.068,-5.45 -15.548,-4.89C-17.363,-3.958 -19.064,-2.686 -20.567,-1.082L-19.071,0.882C-17.841,-0.705 -16.408,-2.073 -14.837,-3.121C-14.376,-3.417 -13.904,-3.691 -13.424,-3.943C-12.944,-3.691 -12.472,-3.417 -12.011,-3.121C-10.44,-2.073 -9.007,-0.705 -7.777,0.882L-6.281,-1.082C-7.784,-2.686 -9.485,-3.958 -11.3,-4.89C-9.78,-5.45 -8.205,-5.786 -6.629,-5.86C-5.18,-4.361 -3.362,-3.175 -1.251,-2.46C1.175,-1.639 3.672,-1.545 6.002,-2.063C4.465,-3.889 2.426,-5.332 0,-6.153" style="fill:rgb(7,78,162);fill-rule:nonzero;"/>
    </g>
    <g transform="matrix(-0.445534,2.62918,2.62918,0.445534,176.858,197.003)">
        <path d="M6.898,-8.166C8.136,-6.124 8.848,-3.73 8.848,-1.169C8.848,1.392 8.135,3.787 6.898,5.828C5.661,3.786 4.948,1.392 4.949,-1.169C4.949,-3.73 5.661,-6.125 6.898,-8.166" style="fill:rgb(7,78,162);fill-rule:nonzero;"/>
    </g>
    <g transform="matrix(-2.6645,0.107373,0.107373,2.6645,187.815,208.056)">
        <path d="M0.078,-3.898C2.639,-3.898 5.033,-3.186 7.075,-1.949C5.034,-0.712 2.64,0.001 0.078,0.002C-2.483,0.002 -4.878,-0.71 -6.919,-1.947C-4.878,-3.184 -2.484,-3.897 0.078,-3.898" style="fill:rgb(7,78,162);fill-rule:nonzero;"/>
    </g>
    <g transform="matrix(-2.58664,0.648371,0.648371,2.58664,204.36,191.8)">
        <path d="M0.474,-3.841C3.035,-3.842 5.43,-3.129 7.471,-1.892C5.43,-0.656 3.036,0.058 0.474,0.058C-2.087,0.058 -4.482,-0.654 -6.523,-1.891C-4.481,-3.128 -2.087,-3.841 0.474,-3.841" style="fill:rgb(7,78,162);fill-rule:nonzero;"/>
    </g>
    <g transform="matrix(-2.42092,1.11814,1.11814,2.42092,216.093,173.329)">
        <path d="M0.818,-3.719C3.379,-3.719 5.773,-3.006 7.814,-1.769C5.773,-0.532 3.379,0.181 0.818,0.181C-1.743,0.18 -4.138,-0.532 -6.179,-1.769C-4.139,-3.007 -1.743,-3.719 0.818,-3.719" style="fill:rgb(7,78,162);fill-rule:nonzero;"/>
    </g>
    <g transform="matrix(1.59527,2.13687,2.13687,-1.59527,203.386,143.84)">
        <path d="M5.606,-2.811C6.844,-0.769 7.556,1.625 7.556,4.186C7.556,6.747 6.844,9.142 5.606,11.182C4.369,9.142 3.657,6.747 3.657,4.186C3.657,1.625 4.37,-0.77 5.606,-2.811" style="fill:rgb(7,78,162);fill-rule:nonzero;"/>
    </g>
    <g transform="matrix(1.73026,-2.02912,-2.02912,-1.73026,229.372,127.208)">
        <path d="M-1.483,-0.685C1.078,-0.685 3.472,0.028 5.513,1.265C3.472,2.502 1.078,3.214 -1.483,3.214C-4.045,3.214 -6.439,2.501 -8.48,1.264C-6.439,0.027 -4.045,-0.685 -1.483,-0.685" style="fill:rgb(7,78,162);fill-rule:nonzero;"/>
    </g>
    <g transform="matrix(2.38856,1.1857,1.1857,-2.38856,207.699,118.239)">
        <path d="M3.111,-0.73C4.349,1.311 5.061,3.706 5.06,6.267C5.061,8.828 4.348,11.223 3.111,13.263C1.874,11.223 1.162,8.828 1.162,6.267C1.161,3.706 1.875,1.311 3.111,-0.73" style="fill:rgb(7,78,162);fill-rule:nonzero;"/>
    </g>
    <g transform="matrix(2.61852,0.50442,0.50442,-2.61852,209.938,101.346)">
        <path d="M1.324,-0.126C2.561,1.915 3.273,4.309 3.273,6.871C3.273,9.431 2.561,11.827 1.324,13.867C0.086,11.826 -0.626,9.432 -0.626,6.87C-0.626,4.309 0.086,1.914 1.324,-0.126" style="fill:rgb(7,78,162);fill-rule:nonzero;"/>
    </g>
    <g transform="matrix(0.240072,-2.65584,-2.65584,-0.240072,208.011,59.3821)">
        <path d="M-1.941,-1.774C0.62,-1.774 3.015,-1.062 5.055,0.175C3.015,1.412 0.62,2.125 -1.941,2.125C-4.503,2.125 -6.897,1.413 -8.938,0.176C-6.897,-1.061 -4.503,-1.774 -1.941,-1.774" style="fill:rgb(7,78,162);fill-rule:nonzero;"/>
    </g>
    <g transform="matrix(1.97994,-1.78633,-1.78633,-1.97994,204.589,61.0367)">
        <path d="M-4.687,-1.802C-3.45,0.239 -2.738,2.634 -2.738,5.195C-2.738,7.756 -3.45,10.15 -4.687,12.192C-5.924,10.151 -6.636,7.756 -6.636,5.195C-6.637,2.634 -5.924,0.24 -4.687,-1.802" style="fill:rgb(7,78,162);fill-rule:nonzero;"/>
    </g>
    <g transform="matrix(2.24516,1.43887,1.43887,-2.24516,191.095,98.2925)">
        <path d="M1.052,-0.308C3.613,-0.308 6.008,0.404 8.049,1.641C6.008,2.879 3.613,3.591 1.052,3.591C-1.51,3.591 -3.904,2.878 -5.945,1.641C-3.904,0.404 -1.509,-0.308 1.052,-0.308" style="fill:rgb(7,78,162);fill-rule:nonzero;"/>
    </g>
    <g transform="matrix(2.45573,1.03946,1.03946,-2.45573,183.611,82.4507)">
        <path d="M0.76,-0.154C3.321,-0.154 5.715,0.559 7.756,1.795C5.716,3.033 3.321,3.745 0.76,3.745C-1.801,3.745 -4.196,3.032 -6.237,1.795C-4.196,0.559 -1.801,-0.154 0.76,-0.154" style="fill:rgb(7,78,162);fill-rule:nonzero;"/>
    </g>
    <g transform="matrix(-1.78239,-1.98348,-1.98348,1.78239,194.63,115.808)">
        <path d="M-1.45,-3.253C1.112,-3.253 3.506,-2.54 5.546,-1.303C3.505,-0.066 1.111,0.646 -1.45,0.646C-4.011,0.646 -6.406,-0.067 -8.446,-1.304C-6.405,-2.541 -4.011,-3.253 -1.45,-3.253" style="fill:rgb(7,78,162);fill-rule:nonzero;"/>
    </g>
    <g transform="matrix(2.35247,-1.25579,-1.25579,-2.35247,213.621,146.67)">
        <path d="M-3.295,-0.824C-2.058,1.217 -1.345,3.611 -1.346,6.172C-1.345,8.734 -2.057,11.128 -3.295,13.169C-4.532,11.128 -5.245,8.734 -5.245,6.172C-5.245,3.611 -4.533,1.217 -3.295,-0.824" style="fill:rgb(7,78,162);fill-rule:nonzero;"/>
    </g>
    <g transform="matrix(-0.639517,-2.58885,-2.58885,0.639517,189.323,150.463)">
        <path d="M-1.892,-2.417C0.668,-2.417 3.063,-1.705 5.104,-0.468C3.063,0.77 0.668,1.482 -1.892,1.482C-4.453,1.482 -6.848,0.77 -8.889,-0.467C-6.848,-1.704 -4.453,-2.417 -1.892,-2.417" style="fill:rgb(7,78,162);fill-rule:nonzero;"/>
    </g>
    <g transform="matrix(0.132007,2.6634,2.6634,-0.132007,181.309,166.303)">
        <path d="M1.947,-1.853C4.508,-1.853 6.902,-1.14 8.944,0.096C6.903,1.334 4.508,2.046 1.947,2.046C-0.614,2.047 -3.008,1.334 -5.05,0.097C-3.009,-1.141 -0.614,-1.853 1.947,-1.853" style="fill:rgb(7,78,162);fill-rule:nonzero;"/>
    </g>
    <g transform="matrix(0.578626,-2.60313,-2.60313,-0.578626,170.181,182.505)">
        <path d="M-1.903,-1.526C0.658,-1.527 3.053,-0.814 5.094,0.422C3.053,1.66 0.658,2.372 -1.903,2.372C-4.464,2.373 -6.859,1.66 -8.9,0.424C-6.859,-0.814 -4.464,-1.526 -1.903,-1.526" style="fill:rgb(7,78,162);fill-rule:nonzero;"/>
    </g>
    <g transform="matrix(1.25156,-2.35472,-2.35472,-1.25156,154.397,195.078)">
        <path d="M-1.721,-1.035C0.839,-1.035 3.234,-0.322 5.275,0.914C3.235,2.151 0.841,2.864 -1.721,2.865C-4.282,2.865 -6.677,2.152 -8.718,0.916C-6.677,-0.321 -4.282,-1.034 -1.721,-1.035" style="fill:rgb(7,78,162);fill-rule:nonzero;"/>
    </g>
    <g transform="matrix(2.66667,0,0,2.66667,120.674,119.112)">
        <path d="M4.047,-0.605L-5.884,-0.605L-5.615,-0.314L-5.615,0L3.778,0L3.778,-0.314L4.047,-0.605Z" style="fill:rgb(7,78,162);fill-rule:nonzero;"/>
    </g>
    <g transform="matrix(2.66667,0,0,2.66667,120.64,111.822)">
        <path d="M4.06,-0.297L-5.872,-0.297L-5.872,0L4.06,0L4.06,-0.297Z" style="fill:rgb(7,78,162);fill-rule:nonzero;"/>
    </g>
    <g transform="matrix(2.66667,0,0,2.66667,96.8176,111.822)">
        <path d="M2.479,-0.297L-3.586,-0.297L-3.586,0L2.479,0L2.479,-0.297Z" style="fill:rgb(7,78,162);fill-rule:nonzero;"/>
    </g>
    <g transform="matrix(2.66667,0,0,2.66667,96.8176,134.461)">
        <path d="M2.479,-0.296L-3.586,-0.296L-3.586,0L2.479,0L2.479,-0.296Z" style="fill:rgb(7,78,162);fill-rule:nonzero;"/>
    </g>
    <g transform="matrix(2.66667,0,0,2.66667,121.451,149.036)">
        <path d="M5.512,-0.302L-7.971,-0.302L-7.971,0L5.512,0L5.512,-0.302Z" style="fill:rgb(7,78,162);fill-rule:nonzero;"/>
    </g>
    <g transform="matrix(2.66667,0,0,2.66667,122.632,150.654)">
        <path d="M7.495,-0.303L-10.84,-0.303L-10.84,0L7.495,0L7.495,-0.303Z" style="fill:rgb(7,78,162);fill-rule:nonzero;"/>
    </g>
    <g transform="matrix(2.66667,0,0,2.66667,123.911,152.271)">
        <path d="M9.504,-0.303L-13.746,-0.303L-13.746,0L9.504,0L9.504,-0.303Z" style="fill:rgb(7,78,162);fill-rule:nonzero;"/>
    </g>
    <g transform="matrix(2.66667,0,0,2.66667,106.223,110.223)">
        <path d="M0,-0.607L0,0L9.001,0L9.001,-0.607L0,-0.607Z" style="fill:rgb(7,78,162);fill-rule:nonzero;"/>
    </g>
    <g transform="matrix(2.66667,0,0,2.66667,120.407,106.104)">
        <path d="M3.793,-0.381L-5.43,-0.381L-5.152,0L3.524,0L3.793,-0.381Z" style="fill:rgb(7,78,162);fill-rule:nonzero;"/>
    </g>
    <g transform="matrix(2.66667,0,0,2.66667,-156.85,-924.621)">
        <rect x="102.85" y="386.459" width="0.606" height="1.102" style="fill:rgb(7,78,162);"/>
    </g>
    <g transform="matrix(2.66667,0,0,2.66667,-156.85,-924.621)">
        <rect x="98.819" y="386.459" width="0.607" height="1.102" style="fill:rgb(7,78,162);"/>
    </g>
    <g transform="matrix(2.66667,0,0,2.66667,-156.85,-924.621)">
        <rect x="106.889" y="386.459" width="0.607" height="1.102" style="fill:rgb(7,78,162);"/>
    </g>
    <g transform="matrix(2.66667,0,0,2.66667,109.799,135.288)">
        <path d="M0,1.213L0.315,0.624L0,0.624L0,0.275L-0.307,0L-1.435,0L-1.743,0.275L-1.743,0.624L-2.057,0.624L-1.743,1.213L0,1.213Z" style="fill:rgb(7,78,162);fill-rule:nonzero;"/>
    </g>
    <g transform="matrix(-2.66667,0,0,2.66667,371.8,-881.797)">
        <rect x="98.558" y="376.858" width="1.128" height="4.245" style="fill:rgb(7,78,162);"/>
    </g>
    <g transform="matrix(0.789341,2.54717,2.54717,-0.789341,107.902,118.377)">
        <path d="M0.229,-1.221L1.182,-1.221L1.574,0.043L0.788,0.58L0.229,-1.221Z" style="fill:rgb(7,78,162);fill-rule:nonzero;"/>
    </g>
    <g transform="matrix(2.66667,0,0,2.66667,108.287,112.629)">
        <path d="M0,1.523L0,0.474L0.262,0L-0.876,0L-0.607,0.474L-0.607,1.523L0,1.523Z" style="fill:rgb(7,78,162);fill-rule:nonzero;"/>
    </g>
    <g transform="matrix(2.66667,0,0,2.66667,-156.85,-856.727)">
        <rect x="98.251" y="373.522" width="1.743" height="1.516" style="fill:rgb(7,78,162);"/>
    </g>
    <g transform="matrix(2.66667,0,0,2.66667,110.638,146.612)">
        <path d="M0,-0.609L-0.315,-0.911L-2.057,-0.911L-2.372,-0.609L-2.372,0.302L0,0.302L0,-0.609Z" style="fill:rgb(7,78,162);fill-rule:nonzero;"/>
    </g>
    <g transform="matrix(2.66667,0,0,2.66667,131.32,135.288)">
        <path d="M0,1.213L0.315,0.624L0,0.624L0,0.275L-0.307,0L-1.435,0L-1.742,0.275L-1.742,0.624L-2.057,0.624L-1.742,1.213L0,1.213Z" style="fill:rgb(7,78,162);fill-rule:nonzero;"/>
    </g>
    <g transform="matrix(-2.66667,0,0,2.66667,414.846,-881.797)">
        <rect x="106.629" y="376.858" width="1.128" height="4.245" style="fill:rgb(7,78,162);"/>
    </g>
    <g transform="matrix(0.789341,2.54717,2.54717,-0.789341,129.423,118.377)">
        <path d="M0.229,-1.221L1.182,-1.221L1.574,0.043L0.788,0.58L0.229,-1.221Z" style="fill:rgb(7,78,162);fill-rule:nonzero;"/>
    </g>
    <g transform="matrix(2.66667,0,0,2.66667,129.808,112.629)">
        <path d="M0,1.523L0,0.474L0.262,0L-0.876,0L-0.607,0.474L-0.607,1.523L0,1.523Z" style="fill:rgb(7,78,162);fill-rule:nonzero;"/>
    </g>
    <g transform="matrix(2.66667,0,0,2.66667,-156.85,-856.727)">
        <rect x="106.321" y="373.522" width="1.742" height="1.516" style="fill:rgb(7,78,162);"/>
    </g>
    <g transform="matrix(2.66667,0,0,2.66667,132.159,146.612)">
        <path d="M0,-0.609L-0.315,-0.911L-2.057,-0.911L-2.372,-0.609L-2.372,0.302L0,0.302L0,-0.609Z" style="fill:rgb(7,78,162);fill-rule:nonzero;"/>
    </g>
    <g transform="matrix(2.66667,0,0,2.66667,109.897,130.436)">
        <path d="M0,1.213L0.91,1.213L0.91,0.607L1.213,0L0,0L0,1.213Z" style="fill:rgb(7,78,162);fill-rule:nonzero;"/>
    </g>
    <g transform="matrix(2.66667,0,0,2.66667,126.552,130.436)">
        <path d="M0,1.213L-0.91,1.213L-0.91,0.607L-1.213,0L0,0L0,1.213Z" style="fill:rgb(7,78,162);fill-rule:nonzero;"/>
    </g>
    <g transform="matrix(2.66667,0,0,2.66667,-156.85,-1079.65)">
        <path d="M99.519,421.233L106.796,421.233L106.796,410.923L99.519,410.923L99.519,421.233ZM104.674,419.42L101.602,419.42L101.602,416.477C101.602,415.628 102.29,414.941 103.138,414.941C103.986,414.941 104.674,415.628 104.674,416.477L104.674,419.42Z" style="fill:rgb(208,158,37);fill-rule:nonzero;"/>
    </g>
    <g transform="matrix(2.66667,0,0,2.66667,-156.85,-1036)">
        <path d="M89.212,410.319L117.106,410.319L117.106,405.467L89.212,405.467L89.212,410.319ZM94.061,409.41L92.242,409.41L92.242,406.378L94.061,406.378L94.061,409.41ZM103.895,409.41L102.423,409.41C101.688,409.41 101.24,408.584 101.631,407.949L102.368,406.754C102.734,406.159 103.584,406.159 103.951,406.754L104.687,407.949C105.078,408.584 104.631,409.41 103.895,409.41M114.074,409.41L112.255,409.41L112.255,406.378L114.074,406.378L114.074,409.41Z" style="fill:rgb(208,158,37);fill-rule:nonzero;"/>
    </g>
    <g transform="matrix(2.66667,0,0,2.66667,127.121,106.106)">
        <path d="M0,0.937L0,0.9L-0.024,0.9C-0.005,0.882 0.007,0.858 0.007,0.832C0.007,0.808 -0.002,0.787 -0.018,0.77L-0.017,0.77C-0.062,0.714 -0.047,0.677 -0.01,0.622C0.001,0.607 0.007,0.589 0.007,0.57C0.007,0.543 -0.005,0.519 -0.024,0.502L0,0.502L0,0.442L-0.024,0.442C-0.005,0.424 0.007,0.4 0.007,0.374C0.007,0.35 -0.002,0.328 -0.018,0.312L-0.017,0.312C-0.062,0.256 -0.047,0.219 -0.01,0.164C0.001,0.149 0.007,0.131 0.007,0.112C0.007,0.085 -0.005,0.061 -0.024,0.044L0,0.044L0,0L-0.207,0L-0.207,0.044L-0.184,0.044C-0.202,0.061 -0.214,0.085 -0.214,0.112C-0.214,0.132 -0.207,0.151 -0.195,0.167C-0.161,0.22 -0.149,0.258 -0.189,0.311C-0.204,0.328 -0.214,0.35 -0.214,0.374C-0.214,0.4 -0.202,0.424 -0.184,0.442L-0.207,0.442L-0.207,0.502L-0.184,0.502C-0.202,0.519 -0.214,0.543 -0.214,0.57C-0.214,0.59 -0.207,0.61 -0.195,0.626C-0.161,0.678 -0.149,0.716 -0.189,0.769C-0.204,0.786 -0.214,0.808 -0.214,0.832C-0.214,0.858 -0.202,0.882 -0.184,0.9L-0.207,0.9L-0.207,0.937L-0.769,0.937L-0.769,0.9L-0.793,0.9C-0.774,0.882 -0.763,0.858 -0.763,0.832C-0.763,0.808 -0.772,0.787 -0.787,0.77C-0.831,0.714 -0.816,0.677 -0.779,0.622C-0.769,0.607 -0.763,0.589 -0.763,0.57C-0.763,0.543 -0.774,0.519 -0.793,0.502L-0.769,0.502L-0.769,0.442L-0.793,0.442C-0.774,0.424 -0.763,0.4 -0.763,0.374C-0.763,0.35 -0.772,0.328 -0.787,0.312C-0.831,0.256 -0.816,0.219 -0.779,0.164C-0.769,0.149 -0.763,0.131 -0.763,0.112C-0.763,0.085 -0.774,0.061 -0.793,0.044L-0.769,0.044L-0.769,0L-0.977,0L-0.977,0.044L-0.953,0.044C-0.972,0.061 -0.983,0.085 -0.983,0.112C-0.983,0.132 -0.976,0.151 -0.964,0.167C-0.93,0.22 -0.918,0.258 -0.958,0.311C-0.974,0.328 -0.983,0.35 -0.983,0.374C-0.983,0.4 -0.972,0.424 -0.953,0.442L-0.977,0.442L-0.977,0.502L-0.953,0.502C-0.972,0.519 -0.983,0.543 -0.983,0.57C-0.983,0.59 -0.976,0.61 -0.964,0.626C-0.93,0.678 -0.918,0.716 -0.958,0.769C-0.974,0.786 -0.983,0.808 -0.983,0.832C-0.983,0.858 -0.972,0.882 -0.953,0.9L-0.977,0.9L-0.977,0.937L-1.539,0.937L-1.539,0.9L-1.562,0.9C-1.544,0.882 -1.532,0.858 -1.532,0.832C-1.532,0.808 -1.541,0.787 -1.556,0.77C-1.6,0.714 -1.585,0.677 -1.548,0.622L-1.549,0.622C-1.538,0.607 -1.532,0.589 -1.532,0.57C-1.532,0.543 -1.544,0.519 -1.562,0.502L-1.539,0.502L-1.539,0.442L-1.562,0.442C-1.544,0.424 -1.532,0.4 -1.532,0.374C-1.532,0.35 -1.541,0.328 -1.556,0.312C-1.6,0.256 -1.585,0.219 -1.548,0.164L-1.549,0.164C-1.538,0.149 -1.532,0.131 -1.532,0.112C-1.532,0.085 -1.544,0.061 -1.562,0.044L-1.539,0.044L-1.539,0L-1.746,0L-1.746,0.044L-1.722,0.044C-1.741,0.061 -1.753,0.085 -1.753,0.112C-1.753,0.132 -1.746,0.151 -1.734,0.167C-1.7,0.22 -1.688,0.258 -1.728,0.311C-1.743,0.328 -1.753,0.35 -1.753,0.374C-1.753,0.4 -1.741,0.424 -1.722,0.442L-1.746,0.442L-1.746,0.502L-1.722,0.502C-1.741,0.519 -1.753,0.543 -1.753,0.57C-1.753,0.59 -1.746,0.61 -1.734,0.626C-1.7,0.678 -1.688,0.716 -1.728,0.769C-1.743,0.786 -1.753,0.808 -1.753,0.832C-1.753,0.858 -1.741,0.882 -1.722,0.9L-1.746,0.9L-1.746,0.937L-2.308,0.937L-2.308,0.9L-2.332,0.9C-2.313,0.882 -2.302,0.858 -2.302,0.832C-2.302,0.808 -2.311,0.787 -2.326,0.77C-2.37,0.714 -2.355,0.677 -2.318,0.622C-2.308,0.607 -2.302,0.589 -2.302,0.57C-2.302,0.543 -2.313,0.519 -2.332,0.502L-2.308,0.502L-2.308,0.442L-2.332,0.442C-2.313,0.424 -2.302,0.4 -2.302,0.374C-2.302,0.35 -2.311,0.328 -2.326,0.312C-2.37,0.256 -2.355,0.219 -2.318,0.164C-2.308,0.149 -2.302,0.131 -2.302,0.112C-2.302,0.085 -2.313,0.061 -2.332,0.044L-2.308,0.044L-2.308,0L-2.516,0L-2.516,0.044L-2.492,0.044C-2.511,0.061 -2.522,0.085 -2.522,0.112C-2.522,0.132 -2.515,0.151 -2.503,0.167C-2.469,0.22 -2.457,0.258 -2.497,0.311C-2.513,0.328 -2.522,0.35 -2.522,0.374C-2.522,0.4 -2.511,0.424 -2.492,0.442L-2.516,0.442L-2.516,0.502L-2.492,0.502C-2.511,0.519 -2.522,0.543 -2.522,0.57C-2.522,0.59 -2.515,0.61 -2.503,0.626C-2.469,0.678 -2.457,0.716 -2.497,0.769C-2.513,0.786 -2.522,0.808 -2.522,0.832C-2.522,0.858 -2.511,0.882 -2.492,0.9L-2.516,0.9L-2.516,0.937L-4.14,0.937L-4.14,0.9L-4.163,0.9C-4.145,0.882 -4.133,0.858 -4.133,0.832C-4.133,0.808 -4.142,0.786 -4.158,0.769C-4.198,0.716 -4.186,0.678 -4.152,0.626C-4.14,0.61 -4.133,0.59 -4.133,0.57C-4.133,0.543 -4.145,0.519 -4.163,0.502L-4.14,0.502L-4.14,0.442L-4.163,0.442C-4.145,0.424 -4.133,0.4 -4.133,0.374C-4.133,0.35 -4.142,0.328 -4.158,0.311C-4.198,0.258 -4.186,0.22 -4.152,0.167C-4.14,0.151 -4.133,0.132 -4.133,0.112C-4.133,0.085 -4.145,0.061 -4.163,0.044L-4.14,0.044L-4.14,0L-4.347,0L-4.347,0.044L-4.323,0.044C-4.342,0.061 -4.353,0.085 -4.353,0.112C-4.353,0.131 -4.347,0.149 -4.337,0.164C-4.3,0.219 -4.285,0.256 -4.329,0.312C-4.344,0.328 -4.353,0.35 -4.353,0.374C-4.353,0.4 -4.342,0.424 -4.323,0.442L-4.347,0.442L-4.347,0.502L-4.323,0.502C-4.342,0.519 -4.353,0.543 -4.353,0.57C-4.353,0.589 -4.347,0.607 -4.337,0.622C-4.3,0.677 -4.285,0.714 -4.329,0.77C-4.344,0.787 -4.353,0.808 -4.353,0.832C-4.353,0.858 -4.342,0.882 -4.323,0.9L-4.347,0.9L-4.347,0.937L-4.909,0.937L-4.909,0.9L-4.933,0.9C-4.914,0.882 -4.903,0.858 -4.903,0.832C-4.903,0.808 -4.912,0.786 -4.927,0.769C-4.967,0.716 -4.955,0.678 -4.922,0.626C-4.91,0.61 -4.903,0.59 -4.903,0.57C-4.903,0.543 -4.914,0.519 -4.933,0.502L-4.909,0.502L-4.909,0.442L-4.933,0.442C-4.914,0.424 -4.903,0.4 -4.903,0.374C-4.903,0.35 -4.912,0.328 -4.927,0.311C-4.967,0.258 -4.955,0.22 -4.922,0.167C-4.91,0.151 -4.903,0.132 -4.903,0.112C-4.903,0.085 -4.914,0.061 -4.933,0.044L-4.909,0.044L-4.909,0L-5.116,0L-5.116,0.044L-5.093,0.044C-5.111,0.061 -5.123,0.085 -5.123,0.112C-5.123,0.131 -5.117,0.149 -5.106,0.164L-5.107,0.164C-5.07,0.219 -5.055,0.256 -5.099,0.312C-5.114,0.328 -5.123,0.35 -5.123,0.374C-5.123,0.4 -5.111,0.424 -5.093,0.442L-5.116,0.442L-5.116,0.502L-5.093,0.502C-5.111,0.519 -5.123,0.543 -5.123,0.57C-5.123,0.589 -5.117,0.607 -5.106,0.622L-5.107,0.622C-5.07,0.677 -5.055,0.714 -5.099,0.77C-5.114,0.787 -5.123,0.808 -5.123,0.832C-5.123,0.858 -5.111,0.882 -5.093,0.9L-5.116,0.9L-5.116,0.937L-5.679,0.937L-5.679,0.9L-5.702,0.9C-5.684,0.882 -5.672,0.858 -5.672,0.832C-5.672,0.808 -5.681,0.786 -5.697,0.769C-5.737,0.716 -5.725,0.678 -5.691,0.626C-5.679,0.61 -5.672,0.59 -5.672,0.57C-5.672,0.543 -5.684,0.519 -5.702,0.502L-5.679,0.502L-5.679,0.442L-5.702,0.442C-5.684,0.424 -5.672,0.4 -5.672,0.374C-5.672,0.35 -5.681,0.328 -5.697,0.311C-5.737,0.258 -5.725,0.22 -5.691,0.167C-5.679,0.151 -5.672,0.132 -5.672,0.112C-5.672,0.085 -5.684,0.061 -5.702,0.044L-5.679,0.044L-5.679,0L-5.886,0L-5.886,0.044L-5.862,0.044C-5.881,0.061 -5.892,0.085 -5.892,0.112C-5.892,0.131 -5.886,0.149 -5.876,0.164C-5.839,0.219 -5.824,0.256 -5.868,0.312C-5.883,0.328 -5.892,0.35 -5.892,0.374C-5.892,0.4 -5.881,0.424 -5.862,0.442L-5.886,0.442L-5.886,0.502L-5.862,0.502C-5.881,0.519 -5.892,0.543 -5.892,0.57C-5.892,0.589 -5.886,0.607 -5.876,0.622C-5.839,0.677 -5.824,0.714 -5.868,0.77C-5.883,0.787 -5.892,0.808 -5.892,0.832C-5.892,0.858 -5.881,0.882 -5.862,0.9L-5.886,0.9L-5.886,0.937L-6.448,0.937L-6.448,0.9L-6.472,0.9C-6.453,0.882 -6.442,0.858 -6.442,0.832C-6.442,0.808 -6.451,0.786 -6.466,0.769C-6.506,0.716 -6.494,0.678 -6.46,0.626C-6.448,0.61 -6.442,0.59 -6.442,0.57C-6.442,0.543 -6.453,0.519 -6.472,0.502L-6.448,0.502L-6.448,0.442L-6.472,0.442C-6.453,0.424 -6.442,0.4 -6.442,0.374C-6.442,0.35 -6.451,0.328 -6.466,0.311C-6.506,0.258 -6.494,0.22 -6.46,0.167C-6.448,0.151 -6.442,0.132 -6.442,0.112C-6.442,0.085 -6.453,0.061 -6.472,0.044L-6.448,0.044L-6.448,0L-6.655,0L-6.655,0.044L-6.632,0.044C-6.65,0.061 -6.662,0.085 -6.662,0.112C-6.662,0.131 -6.656,0.149 -6.645,0.164L-6.646,0.164C-6.609,0.219 -6.594,0.256 -6.638,0.312C-6.653,0.328 -6.662,0.35 -6.662,0.374C-6.662,0.4 -6.65,0.424 -6.632,0.442L-6.655,0.442L-6.655,0.502L-6.632,0.502C-6.65,0.519 -6.662,0.543 -6.662,0.57C-6.662,0.589 -6.656,0.607 -6.645,0.622L-6.646,0.622C-6.609,0.677 -6.594,0.714 -6.638,0.77C-6.653,0.787 -6.662,0.808 -6.662,0.832C-6.662,0.858 -6.65,0.882 -6.632,0.9L-6.655,0.9L-6.655,0.937" style="fill:rgb(7,78,162);fill-rule:nonzero;"/>
    </g>
    <g transform="matrix(2.66667,0,0,2.66667,126.553,120.51)">
        <path d="M0,3.418L-1.492,3.418L-1.492,3.115L-0.303,3.115C-0.306,1.564 -1.57,0.303 -3.122,0.303C-4.675,0.303 -5.938,1.564 -5.942,3.115L-4.754,3.115L-4.754,3.418L-6.245,3.418L-6.245,3.122C-6.245,1.401 -4.844,0 -3.122,0C-1.401,0 0,1.401 0,3.122L0,3.418Z" style="fill:rgb(7,78,162);fill-rule:nonzero;"/>
    </g>
    <g transform="matrix(2.66667,0,0,2.66667,122.977,124.064)">
        <path d="M0,8.744L-3.564,8.744L-3.564,1.782C-3.564,0.8 -2.765,0 -1.782,0C-0.8,0 0,0.8 0,1.782L0,8.744ZM-3.261,8.441L-0.303,8.441L-0.303,1.782C-0.303,0.967 -0.966,0.303 -1.782,0.303C-2.598,0.303 -3.261,0.967 -3.261,1.782L-3.261,8.441Z" style="fill:rgb(7,78,162);fill-rule:nonzero;"/>
    </g>
    <g transform="matrix(2.66667,0,0,2.66667,100.338,114.538)">
        <path d="M0,2.025L-1.075,2.025L-1.075,1.722L-0.31,1.722C-0.386,0.927 -1.058,0.303 -1.873,0.303C-2.688,0.303 -3.361,0.927 -3.437,1.722L-2.672,1.722L-2.672,2.025L-3.747,2.025L-3.747,1.874C-3.747,0.841 -2.906,0 -1.873,0C-0.84,0 0,0.841 0,1.874L0,2.025Z" style="fill:rgb(7,78,162);fill-rule:nonzero;"/>
    </g>
    <g transform="matrix(2.66667,0,0,2.66667,97.7917,116.925)">
        <path d="M0,4.45L-1.837,4.45L-1.837,0.918C-1.837,0.412 -1.425,0 -0.919,0C-0.412,0 0,0.412 0,0.918L0,4.45ZM-1.534,4.147L-0.303,4.147L-0.303,0.918C-0.303,0.578 -0.579,0.302 -0.919,0.302C-1.258,0.302 -1.534,0.578 -1.534,0.918L-1.534,4.147Z" style="fill:rgb(7,78,162);fill-rule:nonzero;"/>
    </g>
    <g transform="matrix(2.66667,0,0,2.66667,142.646,111.822)">
        <path d="M2.479,-0.297L-3.586,-0.297L-3.586,0L2.479,0L2.479,-0.297Z" style="fill:rgb(7,78,162);fill-rule:nonzero;"/>
    </g>
    <g transform="matrix(2.66667,0,0,2.66667,142.646,134.461)">
        <path d="M2.479,-0.296L-3.586,-0.296L-3.586,0L2.479,0L2.479,-0.296Z" style="fill:rgb(7,78,162);fill-rule:nonzero;"/>
    </g>
    <g transform="matrix(2.66667,0,0,2.66667,146.166,114.538)">
        <path d="M0,2.025L-1.075,2.025L-1.075,1.722L-0.31,1.722C-0.386,0.927 -1.058,0.303 -1.873,0.303C-2.689,0.303 -3.361,0.927 -3.437,1.722L-2.672,1.722L-2.672,2.025L-3.747,2.025L-3.747,1.874C-3.747,0.841 -2.907,0 -1.873,0C-0.84,0 0,0.841 0,1.874L0,2.025Z" style="fill:rgb(7,78,162);fill-rule:nonzero;"/>
    </g>
    <g transform="matrix(2.66667,0,0,2.66667,143.619,116.925)">
        <path d="M0,4.45L-1.837,4.45L-1.837,0.918C-1.837,0.412 -1.425,0 -0.919,0C-0.412,0 0,0.412 0,0.918L0,4.45ZM-1.534,4.147L-0.303,4.147L-0.303,0.918C-0.303,0.578 -0.579,0.302 -0.919,0.302C-1.258,0.302 -1.534,0.578 -1.534,0.918L-1.534,4.147Z" style="fill:rgb(7,78,162);fill-rule:nonzero;"/>
    </g>
    <g transform="matrix(2.66667,0,0,2.66667,104.413,167.437)">
        <path d="M0,-2.141L-0.576,-2.048L-0.576,-2.668L0.741,-2.865L0.741,0.724L0,0.724L0,-2.141Z" style="fill:rgb(7,78,162);fill-rule:nonzero;"/>
    </g>
    <g transform="matrix(2.66667,0,0,2.66667,111.043,159.885)">
        <path d="M0,3.578C-0.135,3.556 -0.267,3.523 -0.395,3.479L-0.395,2.843C-0.165,2.934 0.108,2.98 0.423,2.98C0.719,2.98 0.945,2.916 1.1,2.788C1.256,2.66 1.334,2.484 1.334,2.261L1.334,2.091C1.22,2.171 1.086,2.233 0.93,2.277C0.775,2.321 0.628,2.343 0.488,2.343C0.075,2.343 -0.233,2.242 -0.434,2.041C-0.635,1.84 -0.735,1.549 -0.735,1.169C-0.735,0.799 -0.621,0.506 -0.392,0.29C-0.164,0.074 0.181,-0.033 0.642,-0.033C1.107,-0.033 1.454,0.081 1.685,0.31C1.915,0.538 2.031,0.887 2.031,1.355L2.031,2.113C2.031,2.405 1.967,2.665 1.841,2.892C1.715,3.119 1.534,3.295 1.298,3.422C1.062,3.548 0.787,3.611 0.472,3.611C0.293,3.611 0.135,3.6 0,3.578M0.988,1.712C1.112,1.668 1.228,1.611 1.334,1.542L1.334,1.207C1.334,0.746 1.101,0.515 0.637,0.515C0.406,0.515 0.23,0.571 0.11,0.683C-0.011,0.794 -0.071,0.947 -0.071,1.141C-0.071,1.353 -0.018,1.513 0.088,1.619C0.194,1.725 0.373,1.778 0.626,1.778C0.743,1.778 0.863,1.756 0.988,1.712" style="fill:rgb(7,78,162);fill-rule:nonzero;"/>
    </g>
    <g transform="matrix(2.66667,0,0,2.66667,118.273,160.747)">
        <path d="M0,2.876C0.088,2.686 0.203,2.511 0.346,2.352C0.488,2.193 0.679,2.007 0.916,1.795L1.059,1.669C1.231,1.511 1.353,1.395 1.424,1.32C1.496,1.245 1.547,1.168 1.578,1.09C1.609,1.011 1.624,0.911 1.624,0.79C1.624,0.622 1.57,0.495 1.46,0.409C1.35,0.323 1.189,0.28 0.977,0.28C0.695,0.28 0.412,0.337 0.126,0.45L0.126,-0.203C0.261,-0.251 0.422,-0.288 0.606,-0.316C0.791,-0.343 0.97,-0.357 1.142,-0.357C1.544,-0.357 1.85,-0.257 2.061,-0.058C2.271,0.142 2.377,0.419 2.377,0.774C2.377,0.997 2.323,1.193 2.217,1.361C2.111,1.53 1.95,1.707 1.734,1.894L1.646,1.97C1.482,2.113 1.345,2.237 1.238,2.341C1.13,2.445 1.039,2.552 0.966,2.662L2.409,2.662L2.409,3.233L0,3.233L0,2.876Z" style="fill:rgb(7,78,162);fill-rule:nonzero;"/>
    </g>
    <g transform="matrix(2.66667,0,0,2.66667,128.416,160.058)">
        <path d="M0,3.502C-0.194,3.473 -0.353,3.431 -0.477,3.376L-0.477,2.734C-0.353,2.788 -0.205,2.831 -0.033,2.863C0.139,2.894 0.298,2.909 0.445,2.909C0.701,2.909 0.888,2.868 1.007,2.786C1.126,2.703 1.185,2.567 1.185,2.377C1.185,2.198 1.142,2.07 1.054,1.993C0.966,1.916 0.805,1.877 0.571,1.877L-0.494,1.877L-0.494,1.46L-0.401,-0.044L1.701,-0.044L1.647,0.527L0.231,0.527L0.181,1.307L0.714,1.307C1.134,1.307 1.443,1.398 1.641,1.581C1.839,1.764 1.938,2.038 1.938,2.404C1.938,2.759 1.819,3.038 1.584,3.241C1.347,3.444 1.002,3.546 0.549,3.546C0.377,3.546 0.194,3.531 0,3.502" style="fill:rgb(7,78,162);fill-rule:nonzero;"/>
    </g>
    <g transform="matrix(2.66667,0,0,2.66667,295.136,69.5024)">
        <path d="M0,10.169L0,0L-1.769,0L-4.974,6.584L-8.195,0L-9.964,0L-9.964,10.169L-8.258,10.169L-8.258,2.795L-5.495,8.416L-4.453,8.416L-1.705,2.795L-1.705,10.169L0,10.169Z" style="fill:rgb(7,78,162);fill-rule:nonzero;"/>
    </g>
    <g transform="matrix(2.66667,0,0,2.66667,307.06,76.4912)">
        <path d="M0,4.927L4.09,4.927L5.1,7.548L6.869,7.548L3.016,-2.621L1.09,-2.621L-2.795,7.548L-1.011,7.548L0,4.927ZM2.037,-1.058L3.806,3.601L0.269,3.601L2.037,-1.058Z" style="fill:rgb(7,78,162);fill-rule:nonzero;"/>
    </g>
    <g transform="matrix(2.66667,0,0,2.66667,341.164,69.0808)">
        <path d="M0,10.485C0.863,10.485 1.603,10.406 2.219,10.248C2.834,10.09 3.332,9.89 3.711,9.648L3.711,4.753L-0.3,4.753L-0.3,5.874L2.242,5.874L2.242,8.716C1.684,8.927 0.952,9.032 0.047,9.032C-2.195,9.032 -3.316,7.838 -3.316,5.448C-3.316,4.111 -3.045,3.113 -2.503,2.455C-1.961,1.798 -1.064,1.468 0.189,1.468C1.232,1.468 2.189,1.626 3.063,1.942L3.063,0.458C2.179,0.153 1.173,0 0.047,0C-1.648,0 -2.921,0.479 -3.774,1.437C-4.627,2.395 -5.053,3.732 -5.053,5.448C-5.053,7.027 -4.622,8.261 -3.758,9.151C-2.895,10.04 -1.642,10.485 0,10.485" style="fill:rgb(7,78,162);fill-rule:nonzero;"/>
    </g>
    <g transform="matrix(2.66667,0,0,2.66667,363.898,69.5024)">
        <path d="M0,10.169L1.705,10.169L1.705,6.395L5.353,0L3.569,0L0.852,4.942L-1.863,0L-3.648,0L0,6.395L0,10.169Z" style="fill:rgb(7,78,162);fill-rule:nonzero;"/>
    </g>
    <g transform="matrix(2.66667,0,0,2.66667,382.093,69.5024)">
        <path d="M0,10.169L1.011,7.548L5.1,7.548L6.111,10.169L7.88,10.169L4.027,0L2.1,0L-1.784,10.169L0,10.169ZM3.048,1.563L4.816,6.221L1.279,6.221L3.048,1.563Z" style="fill:rgb(7,78,162);fill-rule:nonzero;"/>
    </g>
    <g transform="matrix(2.66667,0,0,2.66667,412.167,79.1016)">
        <path d="M0,2.969L1.911,2.969C2.279,2.969 2.547,3.024 2.716,3.135C2.884,3.245 3.032,3.443 3.158,3.727L4.405,6.569L6.174,6.569L4.895,3.616C4.779,3.332 4.669,3.114 4.563,2.961C4.458,2.809 4.316,2.669 4.137,2.543C4.8,2.343 5.313,1.993 5.677,1.493C6.04,0.993 6.221,0.379 6.221,-0.347C6.221,-1.379 5.953,-2.179 5.416,-2.747C4.879,-3.316 4.058,-3.6 2.953,-3.6L-1.721,-3.6L-1.721,6.569L0,6.569L0,2.969ZM0,-2.258L2.653,-2.258C3.884,-2.258 4.5,-1.621 4.5,-0.347C4.5,0.937 3.832,1.579 2.495,1.579L0,1.579L0,-2.258Z" style="fill:rgb(7,78,162);fill-rule:nonzero;"/>
    </g>
    <g transform="matrix(2.66667,0,0,2.66667,457.979,69.5024)">
        <path d="M0,10.169L1.721,10.169L1.721,1.342L4.958,1.342L4.958,0L-3.253,0L-3.253,1.342L0,1.342L0,10.169Z" style="fill:rgb(7,78,162);fill-rule:nonzero;"/>
    </g>
    <g transform="matrix(2.66667,0,0,2.66667,494.193,73.0373)">
        <path d="M0,7.517L-5.369,7.517L-5.369,4.422L-0.584,4.422L-0.584,3.096L-5.369,3.096L-5.369,0.016L0,0.016L0,-1.326L-7.09,-1.326L-7.09,8.843L0,8.843L0,7.517Z" style="fill:rgb(7,78,162);fill-rule:nonzero;"/>
    </g>
    <g transform="matrix(2.66667,0,0,2.66667,517.663,76.7453)">
        <path d="M0,4.737C0,3.969 -0.232,3.342 -0.695,2.858C-1.158,2.374 -1.984,1.979 -3.174,1.674C-3.858,1.505 -4.371,1.35 -4.714,1.208C-5.056,1.066 -5.3,0.903 -5.448,0.718C-5.595,0.534 -5.669,0.289 -5.669,-0.016C-5.669,-0.521 -5.469,-0.879 -5.069,-1.09C-4.669,-1.3 -4.069,-1.406 -3.269,-1.406C-2.3,-1.406 -1.416,-1.253 -0.616,-0.948L-0.616,-2.464C-0.942,-2.579 -1.366,-2.677 -1.887,-2.756C-2.408,-2.835 -2.948,-2.874 -3.505,-2.874C-4.779,-2.874 -5.748,-2.624 -6.411,-2.124C-7.074,-1.624 -7.406,-0.921 -7.406,-0.016C-7.406,0.753 -7.185,1.355 -6.743,1.792C-6.3,2.229 -5.532,2.589 -4.437,2.874C-3.7,3.063 -3.148,3.232 -2.779,3.379C-2.411,3.527 -2.145,3.703 -1.982,3.908C-1.819,4.113 -1.737,4.39 -1.737,4.737C-1.737,5.284 -1.929,5.658 -2.313,5.858C-2.698,6.058 -3.316,6.158 -4.169,6.158C-5.201,6.158 -6.206,5.969 -7.185,5.59L-7.185,7.106C-6.385,7.443 -5.327,7.611 -4.011,7.611C-2.695,7.611 -1.698,7.358 -1.019,6.853C-0.34,6.348 0,5.642 0,4.737" style="fill:rgb(7,78,162);fill-rule:nonzero;"/>
    </g>
    <g transform="matrix(2.66667,0,0,2.66667,529.171,69.5024)">
        <path d="M0,10.169L1.721,10.169L1.721,1.342L4.958,1.342L4.958,0L-3.253,0L-3.253,1.342L0,1.342L0,10.169Z" style="fill:rgb(7,78,162);fill-rule:nonzero;"/>
    </g>
    <g transform="matrix(2.66667,0,0,2.66667,569.217,96.6192)">
        <path d="M0,-10.169L-1.705,-10.169L-1.705,-2.684L-7.011,-10.169L-8.527,-10.169L-8.527,0L-6.806,0L-6.806,-7.469L-1.516,0L0,0L0,-10.169Z" style="fill:rgb(7,78,162);fill-rule:nonzero;"/>
    </g>
    <g transform="matrix(2.66667,0,0,2.66667,594.211,73.0373)">
        <path d="M0,7.517L-5.369,7.517L-5.369,4.422L-0.584,4.422L-0.584,3.096L-5.369,3.096L-5.369,0.016L0,0.016L0,-1.326L-7.09,-1.326L-7.09,8.843L0,8.843L0,7.517Z" style="fill:rgb(7,78,162);fill-rule:nonzero;"/>
    </g>
    <g transform="matrix(2.66667,0,0,2.66667,613.695,69.5024)">
        <path d="M0,10.169L3.853,0L2.069,0L-0.979,8.321L-4.027,0L-5.811,0L-1.926,10.169L0,10.169Z" style="fill:rgb(7,78,162);fill-rule:nonzero;"/>
    </g>
    <g transform="matrix(2.66667,0,0,2.66667,647.347,73.0373)">
        <path d="M0,7.517L-5.369,7.517L-5.369,4.422L-0.584,4.422L-0.584,3.096L-5.369,3.096L-5.369,0.016L0,0.016L0,-1.326L-7.09,-1.326L-7.09,8.843L0,8.843L0,7.517Z" style="fill:rgb(7,78,162);fill-rule:nonzero;"/>
    </g>
    <g transform="matrix(2.66667,0,0,2.66667,670.574,73.0373)">
        <path d="M0,7.517L-5.211,7.517L-5.211,-1.326L-6.932,-1.326L-6.932,8.843L0,8.843L0,7.517Z" style="fill:rgb(7,78,162);fill-rule:nonzero;"/>
    </g>
    <g transform="matrix(2.66667,0,0,2.66667,674.663,69.5024)">
        <path d="M0,10.169L7.09,10.169L7.09,8.843L1.721,8.843L1.721,5.748L6.506,5.748L6.506,4.421L1.721,4.421L1.721,1.342L7.09,1.342L7.09,0L0,0L0,10.169Z" style="fill:rgb(7,78,162);fill-rule:nonzero;"/>
    </g>
    <g transform="matrix(-2.66667,0,0,2.66667,681.695,67.6493)">
        <path d="M-2.7,-2.795L-1.184,-2.795L0,0L-1.374,0L-2.7,-2.795Z" style="fill:rgb(7,78,162);fill-rule:nonzero;"/>
    </g>
    <g transform="matrix(2.66667,0,0,2.66667,708.576,84.912)">
        <path d="M0,-1.389C-0.684,-1.557 -1.198,-1.713 -1.54,-1.855C-1.882,-1.997 -2.126,-2.16 -2.274,-2.344C-2.422,-2.528 -2.495,-2.773 -2.495,-3.079C-2.495,-3.584 -2.295,-3.942 -1.895,-4.152C-1.495,-4.363 -0.895,-4.468 -0.095,-4.468C0.874,-4.468 1.758,-4.315 2.558,-4.01L2.558,-5.526C2.232,-5.642 1.808,-5.739 1.287,-5.818C0.766,-5.897 0.226,-5.937 -0.332,-5.937C-1.606,-5.937 -2.574,-5.687 -3.237,-5.187C-3.9,-4.687 -4.232,-3.984 -4.232,-3.079C-4.232,-2.31 -4.011,-1.707 -3.569,-1.271C-3.127,-0.834 -2.358,-0.473 -1.263,-0.189C-0.527,0.001 0.026,0.169 0.395,0.316C0.763,0.464 1.029,0.64 1.192,0.845C1.355,1.051 1.437,1.327 1.437,1.674C1.437,2.222 1.245,2.596 0.86,2.795C0.476,2.996 -0.142,3.096 -0.995,3.096C-2.027,3.096 -3.032,2.906 -4.011,2.527L-4.011,4.043C-3.211,4.38 -2.153,4.548 -0.837,4.548C0.479,4.548 1.476,4.296 2.155,3.79C2.834,3.285 3.174,2.58 3.174,1.674C3.174,0.906 2.942,0.28 2.479,-0.205C2.016,-0.689 1.189,-1.084 0,-1.389" style="fill:rgb(7,78,162);fill-rule:nonzero;"/>
    </g>
    <g transform="matrix(2.66667,0,0,2.66667,-156.85,-973.311)">
        <rect x="329.514" y="391.055" width="1.721" height="10.169" style="fill:rgb(7,78,162);"/>
    </g>
    <g transform="matrix(2.66667,0,0,2.66667,268.566,113.716)">
        <path d="M0,10.169L7.09,10.169L7.09,8.843L1.721,8.843L1.721,5.748L6.506,5.748L6.506,4.421L1.721,4.421L1.721,1.342L7.09,1.342L7.09,0L0,0L0,10.169Z" style="fill:rgb(7,78,162);fill-rule:nonzero;"/>
    </g>
    <g transform="matrix(-1.04016,2.45544,2.45544,1.04016,282.802,109.182)">
        <path d="M-1.056,-2.095L1.979,-2.095L1.444,-0.831L-1.647,-0.7L-1.056,-2.095Z" style="fill:rgb(7,78,162);fill-rule:nonzero;"/>
    </g>
    <g transform="matrix(2.66667,0,0,2.66667,304.774,117.97)">
        <path d="M0,6.979C-0.384,7.179 -1.003,7.279 -1.855,7.279C-2.887,7.279 -3.892,7.09 -4.871,6.71L-4.871,8.226C-4.072,8.563 -3.013,8.732 -1.697,8.732C-0.382,8.732 0.616,8.479 1.295,7.974C1.974,7.468 2.313,6.763 2.313,5.858C2.313,5.089 2.082,4.463 1.619,3.979C1.155,3.495 0.329,3.1 -0.86,2.794C-1.545,2.626 -2.058,2.471 -2.4,2.329C-2.742,2.186 -2.987,2.023 -3.135,1.839C-3.282,1.655 -3.356,1.41 -3.356,1.105C-3.356,0.6 -3.156,0.242 -2.755,0.031C-2.355,-0.179 -1.755,-0.285 -0.955,-0.285C0.013,-0.285 0.897,-0.132 1.698,0.173L1.698,-1.343C1.371,-1.459 0.948,-1.556 0.426,-1.635C-0.095,-1.714 -0.634,-1.753 -1.192,-1.753C-2.466,-1.753 -3.434,-1.503 -4.098,-1.003C-4.761,-0.503 -5.092,0.199 -5.092,1.105C-5.092,1.873 -4.871,2.476 -4.429,2.913C-3.987,3.35 -3.219,3.71 -2.124,3.994C-1.387,4.184 -0.834,4.353 -0.466,4.5C-0.097,4.647 0.168,4.823 0.332,5.029C0.495,5.234 0.576,5.51 0.576,5.858C0.576,6.405 0.384,6.779 0,6.979" style="fill:rgb(7,78,162);fill-rule:nonzero;"/>
    </g>
    <g transform="matrix(2.66667,0,0,2.66667,351.998,120.958)">
        <path d="M0,4.737C0,3.969 -0.232,3.342 -0.695,2.858C-1.158,2.374 -1.984,1.979 -3.174,1.674C-3.858,1.505 -4.371,1.35 -4.714,1.208C-5.056,1.066 -5.3,0.903 -5.448,0.718C-5.595,0.534 -5.669,0.29 -5.669,-0.016C-5.669,-0.521 -5.469,-0.879 -5.069,-1.09C-4.669,-1.3 -4.069,-1.406 -3.269,-1.406C-2.3,-1.406 -1.416,-1.253 -0.616,-0.948L-0.616,-2.464C-0.942,-2.579 -1.366,-2.677 -1.887,-2.756C-2.408,-2.834 -2.948,-2.874 -3.505,-2.874C-4.779,-2.874 -5.748,-2.624 -6.411,-2.124C-7.074,-1.624 -7.406,-0.921 -7.406,-0.016C-7.406,0.753 -7.185,1.355 -6.743,1.792C-6.3,2.229 -5.532,2.59 -4.437,2.874C-3.7,3.063 -3.148,3.232 -2.779,3.379C-2.411,3.527 -2.145,3.703 -1.982,3.908C-1.819,4.113 -1.737,4.39 -1.737,4.737C-1.737,5.285 -1.929,5.658 -2.313,5.858C-2.698,6.058 -3.316,6.158 -4.169,6.158C-5.201,6.158 -6.206,5.969 -7.185,5.59L-7.185,7.106C-6.385,7.443 -5.327,7.611 -4.011,7.611C-2.695,7.611 -1.698,7.358 -1.019,6.853C-0.34,6.348 0,5.643 0,4.737" style="fill:rgb(7,78,162);fill-rule:nonzero;"/>
    </g>
    <g transform="matrix(2.66667,0,0,2.66667,368.832,140.833)">
        <path d="M0,-10.169L-4.532,-10.169L-4.532,0L-2.811,0L-2.811,-3.426L-0.063,-3.426C1,-3.426 1.845,-3.732 2.471,-4.342C3.097,-4.953 3.411,-5.763 3.411,-6.774C3.411,-7.795 3.124,-8.616 2.55,-9.237C1.976,-9.858 1.126,-10.169 0,-10.169M1.153,-5.313C0.795,-4.961 0.284,-4.784 -0.379,-4.784L-2.811,-4.784L-2.811,-8.827L-0.3,-8.827C0.353,-8.827 0.847,-8.648 1.184,-8.29C1.521,-7.932 1.69,-7.427 1.69,-6.774C1.69,-6.153 1.51,-5.666 1.153,-5.313" style="fill:rgb(7,78,162);fill-rule:nonzero;"/>
    </g>
    <g transform="matrix(2.66667,0,0,2.66667,384.715,137.887)">
        <path d="M0,-7.959C-0.79,-7.117 -1.184,-5.78 -1.184,-3.948C-1.184,-2.169 -0.787,-0.856 0.008,-0.009C0.803,0.839 2.011,1.263 3.632,1.263C5.253,1.263 6.461,0.839 7.256,-0.009C8.051,-0.856 8.448,-2.169 8.448,-3.948C8.448,-5.78 8.053,-7.117 7.264,-7.959C6.474,-8.801 5.264,-9.222 3.632,-9.222C2,-9.222 0.79,-8.801 0,-7.959M5.992,-6.885C6.482,-6.306 6.727,-5.327 6.727,-3.948C6.727,-2.622 6.479,-1.664 5.985,-1.074C5.49,-0.485 4.706,-0.19 3.632,-0.19C2.569,-0.19 1.79,-0.487 1.295,-1.082C0.8,-1.677 0.553,-2.632 0.553,-3.948C0.553,-5.327 0.798,-6.306 1.287,-6.885C1.776,-7.464 2.558,-7.754 3.632,-7.754C4.716,-7.754 5.503,-7.464 5.992,-6.885" style="fill:rgb(7,78,162);fill-rule:nonzero;"/>
    </g>
    <g transform="matrix(2.66667,0,0,2.66667,424.191,122.872)">
        <path d="M0,3.301C0.168,3.412 0.316,3.609 0.442,3.893L1.69,6.735L3.458,6.735L2.179,3.783C2.063,3.498 1.953,3.28 1.848,3.127C1.742,2.975 1.6,2.835 1.421,2.709C2.084,2.509 2.598,2.159 2.961,1.659C3.324,1.159 3.506,0.545 3.506,-0.181C3.506,-1.212 3.237,-2.013 2.7,-2.581C2.163,-3.15 1.342,-3.434 0.237,-3.434L-4.437,-3.434L-4.437,6.735L-2.716,6.735L-2.716,3.135L-0.805,3.135C-0.437,3.135 -0.168,3.19 0,3.301M-2.716,-2.092L-0.063,-2.092C1.169,-2.092 1.784,-1.454 1.784,-0.181C1.784,1.104 1.116,1.746 -0.221,1.746L-2.716,1.746L-2.716,-2.092Z" style="fill:rgb(7,78,162);fill-rule:nonzero;"/>
    </g>
    <g transform="matrix(2.66667,0,0,2.66667,436.844,140.833)">
        <path d="M0,-10.169L0,-8.827L3.253,-8.827L3.253,0L4.974,0L4.974,-8.827L10.344,-8.827L10.344,0L12.066,0L12.066,-8.827L15.303,-8.827L15.303,-10.169L0,-10.169Z" style="fill:rgb(7,78,162);fill-rule:nonzero;"/>
    </g>
    <g transform="matrix(2.66667,0,0,2.66667,500.588,124.369)">
        <path d="M0,2.337C0,3.179 -0.232,3.814 -0.695,4.24C-1.158,4.666 -1.821,4.879 -2.684,4.879C-3.559,4.879 -4.227,4.666 -4.69,4.24C-5.153,3.814 -5.385,3.179 -5.385,2.337L-5.385,-3.995L-7.106,-3.995L-7.106,2.4C-7.106,3.674 -6.722,4.648 -5.953,5.321C-5.185,5.995 -4.095,6.332 -2.684,6.332C-1.285,6.332 -0.203,5.995 0.561,5.321C1.324,4.648 1.705,3.674 1.705,2.4L1.705,-3.995L0,-3.995L0,2.337Z" style="fill:rgb(7,78,162);fill-rule:nonzero;"/>
    </g>
    <g transform="matrix(2.66667,0,0,2.66667,522.012,140.833)">
        <path d="M0,-10.169L-4.121,-10.169L-4.121,0L0,0C1.526,0 2.647,-0.403 3.363,-1.208C4.079,-2.013 4.437,-3.284 4.437,-5.021C4.437,-6.832 4.079,-8.142 3.363,-8.953C2.647,-9.764 1.526,-10.169 0,-10.169M2.392,-2.747C2.176,-2.211 1.855,-1.839 1.429,-1.634C1.003,-1.429 0.437,-1.326 -0.269,-1.326L-2.4,-1.326L-2.4,-8.827L-0.269,-8.827C0.468,-8.827 1.05,-8.714 1.476,-8.487C1.903,-8.261 2.216,-7.874 2.416,-7.327C2.616,-6.779 2.716,-6.011 2.716,-5.021C2.716,-4.042 2.608,-3.284 2.392,-2.747" style="fill:rgb(7,78,162);fill-rule:nonzero;"/>
    </g>
    <g transform="matrix(2.66667,0,0,2.66667,550.873,141.254)">
        <path d="M0,-10.485C-1.632,-10.485 -2.842,-10.064 -3.632,-9.222C-4.421,-8.379 -4.816,-7.043 -4.816,-5.211C-4.816,-3.432 -4.419,-2.118 -3.624,-1.271C-2.829,-0.424 -1.621,0 0,0C1.621,0 2.829,-0.424 3.624,-1.271C4.419,-2.118 4.816,-3.432 4.816,-5.211C4.816,-7.043 4.421,-8.379 3.632,-9.222C2.842,-10.064 1.632,-10.485 0,-10.485M2.353,-2.337C1.858,-1.747 1.074,-1.453 0,-1.453C-1.063,-1.453 -1.842,-1.75 -2.337,-2.345C-2.832,-2.939 -3.079,-3.895 -3.079,-5.211C-3.079,-6.59 -2.834,-7.569 -2.345,-8.148C-1.855,-8.727 -1.074,-9.016 0,-9.016C1.084,-9.016 1.871,-8.727 2.361,-8.148C2.85,-7.569 3.095,-6.59 3.095,-5.211C3.095,-3.885 2.847,-2.926 2.353,-2.337" style="fill:rgb(7,78,162);fill-rule:nonzero;"/>
    </g>
    <g transform="matrix(2.66667,0,0,2.66667,582.138,123.274)">
        <path d="M0,3L-3.221,-3.585L-4.99,-3.585L-4.99,6.585L-3.285,6.585L-3.285,-0.79L-0.521,4.832L0.521,4.832L3.269,-0.79L3.269,6.585L4.974,6.585L4.974,-3.585L3.205,-3.585L0,3Z" style="fill:rgb(7,78,162);fill-rule:nonzero;"/>
    </g>
    <g transform="matrix(2.66667,0,0,2.66667,610.232,140.833)">
        <path d="M0,-10.169L-3.885,0L-2.1,0L-1.09,-2.621L3,-2.621L4.011,0L5.779,0L1.926,-10.169L0,-10.169ZM-0.821,-3.947L0.947,-8.606L2.716,-3.947L-0.821,-3.947Z" style="fill:rgb(7,78,162);fill-rule:nonzero;"/>
    </g>
    <g transform="matrix(1.14301,-2.40928,-2.40928,-1.14301,618.068,109.676)">
        <path d="M-1.276,0.777L1.817,0.777L1.167,2.146L-1.865,2.018L-1.276,0.777Z" style="fill:rgb(7,78,162);fill-rule:nonzero;"/>
    </g>
    <g transform="matrix(2.66667,0,0,2.66667,648.307,120.872)">
        <path d="M0,4.801L-5.306,-2.684L-6.822,-2.684L-6.822,7.485L-5.1,7.485L-5.1,0.017L0.189,7.485L1.705,7.485L1.705,-2.684L0,-2.684L0,4.801Z" style="fill:rgb(7,78,162);fill-rule:nonzero;"/>
    </g>
    <g transform="matrix(2.66667,0,0,2.66667,669.351,127.653)">
        <path d="M0,-0.284L-2.716,-5.227L-4.5,-5.227L-0.853,1.169L-0.853,4.943L0.853,4.943L0.853,1.169L4.5,-5.227L2.716,-5.227L0,-0.284Z" style="fill:rgb(7,78,162);fill-rule:nonzero;"/>
    </g>
    <g transform="matrix(2.66667,0,0,2.66667,-156.85,-884.885)">
        <rect x="316.005" y="374.475" width="1.721" height="10.169" style="fill:rgb(7,78,162);"/>
    </g>
    <g transform="matrix(2.66667,0,0,2.66667,268.566,157.93)">
        <path d="M0,10.169L7.09,10.169L7.09,8.843L1.721,8.843L1.721,5.748L6.506,5.748L6.506,4.421L1.721,4.421L1.721,1.342L7.09,1.342L7.09,0L0,0L0,10.169Z" style="fill:rgb(7,78,162);fill-rule:nonzero;"/>
    </g>
    <g transform="matrix(2.66667,0,0,2.66667,303.299,169.805)">
        <path d="M0,1.263L2.542,1.263L2.542,4.105C1.984,4.316 1.253,4.421 0.347,4.421C-1.895,4.421 -3.016,3.227 -3.016,0.837C-3.016,-0.5 -2.745,-1.498 -2.203,-2.156C-1.661,-2.813 -0.763,-3.143 0.49,-3.143C1.532,-3.143 2.49,-2.985 3.363,-2.669L3.363,-4.153C2.479,-4.459 1.474,-4.611 0.347,-4.611C-1.347,-4.611 -2.621,-4.132 -3.474,-3.174C-4.326,-2.216 -4.753,-0.879 -4.753,0.837C-4.753,2.416 -4.321,3.65 -3.458,4.54C-2.595,5.429 -1.342,5.874 0.3,5.874C1.163,5.874 1.903,5.795 2.519,5.637C3.134,5.479 3.632,5.279 4.011,5.037L4.011,0.142L0,0.142L0,1.263Z" style="fill:rgb(7,78,162);fill-rule:nonzero;"/>
    </g>
    <g transform="matrix(2.66667,0,0,2.66667,329.108,171.869)">
        <path d="M0,-0.285L-2.716,-5.227L-4.5,-5.227L-0.853,1.168L-0.853,4.942L0.853,4.942L0.853,1.168L4.5,-5.227L2.716,-5.227L0,-0.285Z" style="fill:rgb(7,78,162);fill-rule:nonzero;"/>
    </g>
    <g transform="matrix(2.66667,0,0,2.66667,345.585,157.93)">
        <path d="M0,10.169L7.09,10.169L7.09,8.843L1.721,8.843L1.721,5.748L6.506,5.748L6.506,4.421L1.721,4.421L1.721,1.342L7.09,1.342L7.09,0L0,0L0,10.169Z" style="fill:rgb(7,78,162);fill-rule:nonzero;"/>
    </g>
    <g transform="matrix(2.66667,0,0,2.66667,368.091,181.469)">
        <path d="M0,-7.485L3.253,-7.485L3.253,1.342L4.974,1.342L4.974,-7.485L8.211,-7.485L8.211,-8.827L0,-8.827L0,-7.485Z" style="fill:rgb(7,78,162);fill-rule:nonzero;"/>
    </g>
    <g transform="matrix(2.66667,0,0,2.66667,394.071,157.93)">
        <path d="M0,10.169L7.09,10.169L7.09,8.843L1.721,8.843L1.721,5.748L6.506,5.748L6.506,4.421L1.721,4.421L1.721,1.342L7.09,1.342L7.09,0L0,0L0,10.169Z" style="fill:rgb(7,78,162);fill-rule:nonzero;"/>
    </g>
    <g transform="matrix(2.66667,0,0,2.66667,431.025,167.488)">
        <path d="M0,3L-3.221,-3.585L-4.99,-3.585L-4.99,6.585L-3.285,6.585L-3.285,-0.79L-0.521,4.832L0.521,4.832L3.269,-0.79L3.269,6.585L4.974,6.585L4.974,-3.585L3.205,-3.585L0,3Z" style="fill:rgb(7,78,162);fill-rule:nonzero;"/>
    </g>
    <g transform="matrix(2.66667,0,0,2.66667,268.558,214.752)">
        <path d="M0,-3.983L2.016,-3.983C2.412,-3.983 2.709,-3.89 2.907,-3.705C3.105,-3.519 3.204,-3.253 3.204,-2.907C3.204,-2.701 3.163,-2.524 3.083,-2.378C3.003,-2.232 2.89,-2.119 2.746,-2.041C2.944,-1.979 3.094,-1.879 3.197,-1.741C3.3,-1.603 3.352,-1.41 3.352,-1.163C3.352,-0.779 3.244,-0.49 3.027,-0.294C2.811,-0.098 2.499,0 2.09,0L0,0L0,-3.983ZM1.861,-2.332C2.237,-2.332 2.424,-2.501 2.424,-2.839C2.424,-3.02 2.378,-3.153 2.285,-3.238C2.192,-3.322 2.031,-3.365 1.8,-3.365L0.835,-3.365L0.835,-2.332L1.861,-2.332ZM1.892,-0.612C2.107,-0.612 2.262,-0.657 2.359,-0.745C2.456,-0.834 2.505,-0.986 2.505,-1.2C2.505,-1.381 2.454,-1.514 2.353,-1.599C2.252,-1.683 2.08,-1.726 1.837,-1.726L0.835,-1.726L0.835,-0.612L1.892,-0.612Z" style="fill:rgb(208,158,37);fill-rule:nonzero;"/>
    </g>
    <g transform="matrix(2.66667,0,0,2.66667,282.046,205.202)">
        <path d="M0,3.241C-0.315,2.973 -0.473,2.588 -0.473,2.085L-0.473,-0.402L0.362,-0.402L0.362,2.023C0.362,2.324 0.443,2.551 0.606,2.703C0.769,2.856 1.003,2.932 1.308,2.932C1.613,2.932 1.846,2.856 2.007,2.703C2.168,2.551 2.248,2.324 2.248,2.023L2.248,-0.402L3.083,-0.402L3.083,2.085C3.083,2.584 2.926,2.968 2.613,3.238C2.3,3.508 1.865,3.643 1.308,3.643C0.752,3.643 0.315,3.509 0,3.241" style="fill:rgb(208,158,37);fill-rule:nonzero;"/>
    </g>
    <g transform="matrix(2.66667,0,0,2.66667,294.023,214.752)">
        <path d="M0,-3.983L1.67,-3.983C2.28,-3.983 2.734,-3.825 3.03,-3.51C3.327,-3.194 3.476,-2.682 3.476,-1.973C3.476,-1.297 3.327,-0.799 3.03,-0.479C2.734,-0.16 2.28,0 1.67,0L0,0L0,-3.983ZM1.552,-0.643C1.804,-0.643 2.006,-0.68 2.158,-0.755C2.311,-0.829 2.427,-0.963 2.508,-1.157C2.588,-1.35 2.628,-1.623 2.628,-1.973C2.628,-2.328 2.592,-2.6 2.52,-2.789C2.448,-2.979 2.336,-3.11 2.183,-3.182C2.031,-3.254 1.82,-3.29 1.552,-3.29L0.835,-3.29L0.835,-0.643L1.552,-0.643Z" style="fill:rgb(208,158,37);fill-rule:nonzero;"/>
    </g>
    <g transform="matrix(2.66667,0,0,2.66667,309.761,214.752)">
        <path d="M0,-3.983L0.915,-3.983L2.431,0L1.565,0L1.187,-0.959L-0.278,-0.959L-0.649,0L-1.521,0L0,-3.983ZM1.064,-1.602L0.452,-3.204L-0.154,-1.602L1.064,-1.602Z" style="fill:rgb(208,158,37);fill-rule:nonzero;"/>
    </g>
    <g transform="matrix(2.66667,0,0,2.66667,319.464,214.752)">
        <path d="M0,-3.983L1.868,-3.983C2.317,-3.983 2.657,-3.857 2.888,-3.606C3.119,-3.354 3.234,-3.022 3.234,-2.61C3.234,-2.342 3.178,-2.105 3.064,-1.899C2.951,-1.693 2.789,-1.533 2.579,-1.42C2.369,-1.306 2.123,-1.249 1.843,-1.249L0.835,-1.249L0.835,0L0,0L0,-3.983ZM1.67,-1.911C1.905,-1.911 2.084,-1.973 2.208,-2.097C2.332,-2.22 2.393,-2.391 2.393,-2.61C2.393,-2.841 2.336,-3.017 2.22,-3.139C2.105,-3.26 1.932,-3.321 1.701,-3.321L0.835,-3.321L0.835,-1.911L1.67,-1.911Z" style="fill:rgb(208,158,37);fill-rule:nonzero;"/>
    </g>
    <g transform="matrix(2.66667,0,0,2.66667,331.157,214.752)">
        <path d="M0,-3.983L2.857,-3.983L2.857,-3.334L0.835,-3.334L0.835,-2.313L2.628,-2.313L2.628,-1.67L0.835,-1.67L0.835,-0.643L2.857,-0.643L2.857,0L0,0L0,-3.983Z" style="fill:rgb(208,158,37);fill-rule:nonzero;"/>
    </g>
    <g transform="matrix(2.66667,0,0,2.66667,341.994,204.545)">
        <path d="M0,3.673L0,2.937C0.186,3.011 0.383,3.071 0.594,3.117C0.804,3.162 1.008,3.184 1.206,3.184C1.515,3.184 1.733,3.156 1.858,3.098C1.984,3.04 2.047,2.921 2.047,2.739C2.047,2.62 2.018,2.525 1.96,2.455C1.903,2.385 1.808,2.324 1.676,2.272C1.544,2.221 1.338,2.156 1.058,2.077C0.641,1.962 0.348,1.818 0.179,1.644C0.01,1.471 -0.074,1.232 -0.074,0.927C-0.074,0.56 0.06,0.278 0.328,0.08C0.596,-0.118 0.985,-0.217 1.497,-0.217C1.728,-0.217 1.947,-0.202 2.155,-0.171C2.363,-0.14 2.534,-0.1 2.666,-0.05L2.666,0.686C2.327,0.558 1.975,0.494 1.608,0.494C1.328,0.494 1.118,0.525 0.98,0.587C0.842,0.649 0.773,0.762 0.773,0.927C0.773,1.03 0.799,1.113 0.85,1.175C0.902,1.236 0.988,1.291 1.11,1.338C1.232,1.386 1.42,1.443 1.676,1.508C2.138,1.632 2.457,1.792 2.635,1.988C2.812,2.184 2.901,2.434 2.901,2.739C2.901,3.098 2.765,3.379 2.492,3.583C2.22,3.788 1.818,3.89 1.286,3.89C0.755,3.89 0.326,3.817 0,3.673" style="fill:rgb(208,158,37);fill-rule:nonzero;"/>
    </g>
    <g transform="matrix(2.66667,0,0,2.66667,355.57,213.038)">
        <path d="M0,-2.697L-1.225,-2.697L-1.225,-3.34L2.053,-3.34L2.053,-2.697L0.835,-2.697L0.835,0.643L0,0.643L0,-2.697Z" style="fill:rgb(208,158,37);fill-rule:nonzero;"/>
    </g>
    <g transform="matrix(2.66667,0,0,2.66667,76.1888,186.703)">
        <path d="M0,-43.948L0,-9.107L15.768,0L31.536,-9.107L31.536,-43.948L0,-43.948ZM16.416,-41.031L18.986,-41.031L18.986,-40.384L17.228,-40.384L17.228,-39.538L18.781,-39.538L18.781,-38.898L17.228,-38.898L17.228,-37.406L16.416,-37.406L16.416,-41.031ZM12.526,-41.031L15.521,-41.031L15.521,-40.39L14.432,-40.39L14.432,-37.406L13.62,-37.406L13.62,-40.39L12.526,-40.39L12.526,-41.031ZM30.323,-9.808L15.768,-1.404L1.213,-9.808L1.213,-34.851L30.323,-34.851L30.323,-9.808Z" style="fill:rgb(7,78,162);fill-rule:nonzero;"/>
    </g>
</svg>
