<?xml version="1.0" encoding="utf-8"?>
<!-- Generator: Adobe Illustrator 26.1.0, SVG Export Plug-In . SVG Version: 6.00 Build 0)  -->
<svg version="1.1" id="Layer_1" xmlns="http://www.w3.org/2000/svg" xmlns:xlink="http://www.w3.org/1999/xlink" x="0px" y="0px"
	 viewBox="0 0 297.7 107.8" style="enable-background:new 0 0 297.7 107.8;" xml:space="preserve">
<style type="text/css">
	.st0{fill-rule:evenodd;clip-rule:evenodd;fill:#F59B3F;}
	.st1{fill-rule:evenodd;clip-rule:evenodd;fill:#222527;}
	.st2{fill:#222527;}
	.st3{fill:#F59B3F;}
</style>
<path class="st0" d="M53.6,0L53.6,0c5.8,0,10.5,4.7,10.5,10.5l0,0c0,5.8-4.7,10.5-10.5,10.5h0c-5.8,0-10.5-4.7-10.5-10.5l0,0
	C43.1,4.7,47.8,0,53.6,0z"/>
<g>
	<g>
		<path class="st1" d="M120,20.9L120,20.9l31.3,0v0c5.8,0,10.5-4.7,10.5-10.5S157.1,0,151.4,0H120c-5.8,0-10.5,4.7-10.5,10.5
			S114.3,20.9,120,20.9z"/>
		<path class="st1" d="M151.4,30.1H120c-5.8,0-10.5,4.7-10.5,10.5s4.7,10.5,10.5,10.5v0h31.3v0c5.8,0,10.5-4.7,10.5-10.5
			S157.1,30.1,151.4,30.1z"/>
		<path class="st1" d="M151.4,60.3H120c-5.8,0-10.5,4.7-10.5,10.5s4.7,10.5,10.5,10.5v0h31.3v0c5.8,0,10.5-4.7,10.5-10.5
			S157.1,60.3,151.4,60.3z"/>
		<path class="st1" d="M63.4,64.5L63.4,64.5L18.9,4.3l0,0c-1.9-2.6-5-4.3-8.4-4.3h0C4.7,0,0,4.7,0,10.5c0,0.1,0,0.3,0,0.4h0v59.9
			c0,5.8,4.7,10.5,10.5,10.5h0c5.8,0,10.5-4.7,10.5-10.5c0-0.1,0-0.1,0-0.2V42.2L46.6,77l0,0c1.9,2.6,5,4.3,8.4,4.3h0
			c5.8,0,10.5-4.7,10.5-10.5C65.5,68.4,64.7,66.3,63.4,64.5z"/>
		<path class="st1" d="M88.2,0c-5.8,0-10.5,4.7-10.5,10.5v60C77.3,79,74.2,85.1,68.3,89l0,0c-2.5,1.9-4.2,4.9-4.2,8.3
			c0,5.8,4.7,10.5,10.5,10.5h0c2,0,3.9-0.6,5.5-1.6l0,0c8.1-5.5,15.3-14.2,17.7-27.7l0,0c0,0,0.1-0.2,0.1-0.8c0,0,0,0,0,0
			c0-0.1,0-0.1,0-0.2c0.2-1.8,0.7-6.2,0.7-15.6c0,0,0,0,0,0c0-0.2,0-0.4,0-0.6c0-0.3,0-0.6,0-0.9v-50C98.7,4.7,93.9,0,88.2,0z"/>
	</g>
</g>
<path class="st2" d="M192.4,0.2h6l4.2,14.5h0.3V0.2h3.6v17.6h-5.9l-4.4-14.5H196v14.5h-3.6V0.2z"/>
<path class="st2" d="M220.1,14.8l0.1,2.6c0,0-3,0.7-5.4,0.7c-3.9,0-5.6-1.9-5.6-6.6c0-4.6,1.9-6.9,5.7-6.9c3.8,0,5.6,1.9,5.6,5.8
	l-0.3,2.4h-7.6c0,1.5,0.8,2.2,2.6,2.2C217.4,15,220.1,14.8,220.1,14.8z M217.1,10.1c0-2.1-0.6-2.8-2.2-2.8c-1.7,0-2.2,0.8-2.2,2.8
	H217.1z"/>
<path class="st2" d="M234.1,4.8v12.9h-3.4V17c0,0-1.9,1-3.2,1c-3.8,0-4.5-2.1-4.5-6.5V4.8h3.5v6.8c0,2.3,0.1,3.3,1.8,3.3
	c1.3,0,2.5-0.5,2.5-0.5V4.8H234.1z"/>
<path class="st2" d="M237.3,17.8V4.8h3.4v0.7c0,0,1.8-1,3-1c1.4,0,2.5,0.4,3.2,1.2c0,0,2.4-1.2,4.3-1.2c3.5,0,4.5,2.1,4.5,6.2v7
	h-3.5v-6.9c0-2-0.3-3.2-1.8-3.2c-1,0-2.4,0.5-2.4,0.5s0.1,1.9,0.1,2.9v6.7h-3.5v-6.6c0-2.3-0.2-3.5-1.8-3.5c-1.1,0-2.3,0.5-2.3,0.5
	v9.7H237.3z"/>
<path class="st2" d="M268.9,14.3c0.1,0.8,0.2,1.1,0.9,1.2l-0.1,2.6c-1.7,0-2.6-0.2-3.7-0.9c0,0-1.9,0.9-3.8,0.9c-2.7,0-4-1.5-4-4.2
	c0-2.9,1.7-3.7,4.5-4l2.8-0.2V8.9c0-1.1-0.5-1.4-1.5-1.4c-1.7,0-4.9,0.2-4.9,0.2l-0.1-2.4c0,0,2.8-0.7,5.2-0.7
	c3.4,0,4.7,1.3,4.7,4.3V14.3z M263.1,12.3c-0.9,0.1-1.4,0.5-1.4,1.4c0,0.9,0.3,1.5,1.3,1.5c1.1,0,2.5-0.4,2.5-0.4v-2.8L263.1,12.3z"
	/>
<path class="st2" d="M272.2,17.8V4.8h3.4v0.7c0,0,1.8-1,3.2-1c3.6,0,4.5,2.3,4.5,6.2v7h-3.5v-6.9c0-2-0.3-3.2-1.9-3.2
	c-1.2,0-2.4,0.5-2.4,0.5v9.7H272.2z"/>
<path class="st2" d="M286.5,17.8V4.8h3.4v0.7c0,0,1.8-1,3.2-1c3.6,0,4.5,2.3,4.5,6.2v7h-3.5v-6.9c0-2-0.3-3.2-1.9-3.2
	c-1.2,0-2.3,0.5-2.3,0.5v9.7H286.5z"/>
<path class="st2" d="M196.5,45.8c0,3.9-1.7,4.8-5.5,4.8v-3.1c1.3,0,2-0.4,2-1.8V31.2h3.5L196.5,45.8z"/>
<path class="st2" d="M209.8,45.2c0.1,0.8,0.2,1.1,0.9,1.2l-0.1,2.6c-1.7,0-2.6-0.2-3.7-0.9c0,0-1.9,0.9-3.8,0.9c-2.7,0-4-1.5-4-4.2
	c0-2.9,1.7-3.7,4.5-4l2.8-0.2v-0.8c0-1.1-0.5-1.4-1.5-1.4c-1.7,0-4.9,0.2-4.9,0.2l-0.1-2.4c0,0,2.8-0.7,5.2-0.7
	c3.4,0,4.7,1.3,4.7,4.3V45.2z M207.3,29.3l1,3l-6.8,1.9l-0.8-2.2L207.3,29.3z M204,43.3c-0.9,0.1-1.4,0.5-1.4,1.4
	c0,0.9,0.3,1.5,1.3,1.5c1.1,0,2.5-0.4,2.5-0.4v-2.8L204,43.3z"/>
<path class="st2" d="M213.1,48.8V35.8h3.4v0.7c0,0,1.8-1,3.2-1c3.6,0,4.5,2.3,4.5,6.2v7h-3.5v-6.9c0-2-0.3-3.2-1.9-3.2
	c-1.2,0-2.3,0.5-2.3,0.5v9.7H213.1z"/>
<path class="st2" d="M238.6,42.3c0,4-1.4,6.8-5.9,6.8s-5.9-2.8-5.9-6.8s1.4-6.7,5.9-6.7S238.6,38.3,238.6,42.3z M235.1,42.3
	c0-2.5-0.5-3.8-2.4-3.8s-2.4,1.3-2.4,3.8s0.5,3.8,2.4,3.8S235.1,44.8,235.1,42.3z"/>
<path class="st2" d="M250.4,39.1c0,0-3.2-0.4-4.7-0.4s-1.8,0.3-1.8,1c0,0.6,0.5,0.7,2.9,1.2c3,0.5,4.1,1.4,4.1,4c0,3-2,4.2-5.2,4.2
	c-1.9,0-5-0.6-5-0.6l0.1-2.9c0,0,3.2,0.4,4.5,0.4c1.7,0,2.1-0.3,2.1-1c0-0.6-0.3-0.8-2.7-1.2c-2.8-0.5-4.3-1.1-4.3-4
	c0-3,2.3-4.2,5-4.2c1.9,0,5,0.6,5,0.6L250.4,39.1z"/>
<path class="st3" d="M192.4,62.2h11.4v3.1H196v4.1h6.3v3H196v4.2h7.8v3.1h-11.4V62.2z"/>
<path class="st3" d="M205.5,82.1c0-1.2,0.6-2.1,1.9-3.1c-0.6-0.4-1-1.2-1-2c0-0.6,1-2.1,1-2.1c-0.9-0.6-1.8-1.6-1.8-3.8
	c0-3.3,2.4-4.6,5.4-4.6c1.1,0,2.6,0.3,2.6,0.3l4.2-0.1v2.8l-1.9-0.2c0.2,0.4,0.6,1,0.6,1.8c0,3.6-1.9,4.5-5.4,4.5
	c-0.3,0-0.8-0.1-1.1-0.1c0,0-0.3,0.7-0.3,1c0,0.7,0.3,0.8,2.5,0.9c4.4,0,5.6,1,5.6,3.9c0,3.2-2.8,4.3-6.1,4.3
	C207.9,85.7,205.5,85,205.5,82.1z M209.6,80.3c-0.4,0.4-0.7,0.8-0.7,1.5c0,0.7,0.9,1.1,2.8,1.1c1.7,0,2.6-0.4,2.6-1.3
	c0-1-0.5-1.1-2.4-1.1C211.2,80.5,209.6,80.3,209.6,80.3z M213,71.2c0-1.2-0.6-1.9-2-1.9c-1.4,0-2,0.7-2,1.9s0.6,1.9,2,1.9
	C212.5,73.1,213,72.4,213,71.2z"/>
<path class="st3" d="M222.1,66.8l2.3,10h0.6l2.3-10h3.4l-4.5,18.3h-3.4l1.4-5.4h-2.4l-3.2-12.9H222.1z"/>
<path class="st3" d="M242.8,76.8l0.1,2.6c0,0-3,0.7-5.4,0.7c-3.9,0-5.6-1.9-5.6-6.6c0-4.6,1.9-6.9,5.7-6.9c3.8,0,5.6,1.9,5.6,5.8
	l-0.3,2.4h-7.6c0,1.5,0.8,2.2,2.6,2.2C240.2,77,242.8,76.8,242.8,76.8z M239.9,72.1c0-2.1-0.6-2.8-2.2-2.8c-1.7,0-2.2,0.8-2.2,2.8
	H239.9z"/>
<path class="st3" d="M249.8,69.8v5.3c0,1.3,0,1.9,1.1,1.9c0.7,0,2-0.1,2-0.1l0.2,2.8c0,0-1.7,0.4-2.6,0.4c-3.1,0-4-1.2-4-4.9v-5.4
	h-1.5v-2.9h1.5v-3.6h3.5v3.6h3.2v2.9H249.8z"/>
<path class="st3" d="M265.4,76.8l0.1,2.6c0,0-3,0.7-5.4,0.7c-3.9,0-5.6-1.9-5.6-6.6c0-4.6,1.9-6.9,5.7-6.9c3.8,0,5.6,1.9,5.6,5.8
	l-0.3,2.4H258c0,1.5,0.8,2.2,2.6,2.2C262.8,77,265.4,76.8,265.4,76.8z M262.5,72.1c0-2.1-0.6-2.8-2.2-2.8c-1.7,0-2.2,0.8-2.2,2.8
	H262.5z"/>
<path class="st3" d="M268.4,79.8V66.8h3.4v0.7c0,0,1.8-1,3-1c1.4,0,2.5,0.4,3.2,1.2c0,0,2.4-1.2,4.3-1.2c3.5,0,4.5,2.1,4.5,6.2v7
	h-3.5v-6.9c0-2-0.3-3.2-1.8-3.2c-1,0-2.4,0.5-2.4,0.5s0.1,1.9,0.1,2.9v6.7h-3.5v-6.6c0-2.3-0.2-3.5-1.8-3.5c-1.1,0-2.3,0.5-2.3,0.5
	v9.7H268.4z"/>
</svg>
