<?xml version="1.0" encoding="UTF-8"?>
<!DOCTYPE svg PUBLIC "-//W3C//DTD SVG 1.1//EN" "http://www.w3.org/Graphics/SVG/1.1/DTD/svg11.dtd">
<!-- Creator: CorelDRAW 2021 (64-Bit) -->
<svg xmlns="http://www.w3.org/2000/svg" xml:space="preserve" width="157.395mm" height="51.3161mm" version="1.1" style="shape-rendering:geometricPrecision; text-rendering:geometricPrecision; image-rendering:optimizeQuality; fill-rule:evenodd; clip-rule:evenodd"
viewBox="0 0 15738.42 5131.26"
 xmlns:xlink="http://www.w3.org/1999/xlink"
 xmlns:xodm="http://www.corel.com/coreldraw/odm/2003">
 <defs>
  <style type="text/css">
   <![CDATA[
    .fil0 {fill:#2B2A29;fill-rule:nonzero}
   ]]>
  </style>
 </defs>
 <g id="Layer_x0020_1">
  <metadata id="CorelCorpID_0Corel-Layer"/>
  <path class="fil0" d="M1930.95 830.8l0 114.66 105.09 0 0 -114.66c0,-23.75 -23.53,-43 -52.54,-43 -29.03,0 -52.56,19.25 -52.56,43zm1156.21 0l0 114.66 105.08 0 0 -114.66c0,-23.75 -23.52,-43 -52.54,-43 -29.02,0 -52.55,19.25 -52.55,43zm-770.83 114.65l-105.1 -227.73 -105.11 227.73 210.22 0zm700.74 0l-105.1 -227.73 -105.11 227.73 210.22 0zm-588.54 -779.29c7.6,0 14.21,-4 18,-9.97l70.75 -12.52 25.32 138.04c-11.96,6.26 -20.22,18.65 -20.22,33.07l74.99 0c0,-16.7 -10.99,-30.68 -26.09,-35.53l-25.79 -140.55 77.28 -13.68c3.73,3.19 8.52,5.19 13.83,5.19 11.78,0 21.33,-9.55 21.33,-21.35 0,-11.77 -9.55,-21.34 -21.33,-21.34 -7.2,0 -13.51,3.58 -17.38,9.02l-78.89 13.95 -14 -76.28c2.71,-3.6 4.4,-8.01 4.4,-12.88 0,-11.77 -9.55,-21.34 -21.34,-21.34 -11.79,0 -21.35,9.57 -21.35,21.34 0,7.65 4.05,14.29 10.08,18.06l13.98 76.1 -70.62 12.49c-3.6,-2.79 -8.07,-4.51 -12.96,-4.51 -11.8,0 -21.35,9.55 -21.35,21.35 0,11.79 9.55,21.34 21.35,21.34zm844.22 779.29l94.69 0 -123.1 -337.11 -353.7 -258.51 -83.8 0 0 96.97c226.07,75.1 402.41,262.88 465.91,498.65zm-956.43 -496.69l0 -98.94 -83.37 0 -347.52 258.52 -129.69 337.11 99.94 0c63.04,-233.78 237.1,-420.33 460.64,-496.69zm35.05 496.71l420.45 0 0 -595.63 -420.45 0 0 595.63zm297.82 -104.79l-177.45 0 0 -170.05c0,-49 39.71,-88.72 88.72,-88.72 49,0 88.72,39.73 88.72,88.72l0 170.05zm-893.26 419.98l1611.52 0 0 -280.29 -1611.52 0 0 280.29zm280.1 -52.56l-105.11 0 0 -175.19 105.11 0 0 175.19zm568.18 0l-85.05 0c-42.5,0 -68.36,-47.72 -45.74,-84.41l42.54 -69.01c21.17,-34.37 70.28,-34.37 91.45,0l42.54 69.01c22.62,36.7 -3.24,84.41 -45.74,84.41zm588.04 0l-105.1 0 0 -175.19 105.1 0 0 175.19zm-1371.76 3374.1c-128.21,-50.77 -271.47,-68.25 -417.36,-43.53 -145.89,24.73 -275.41,88.42 -379.73,178.58 128.21,50.76 271.47,68.25 417.36,43.52 145.89,-24.71 275.41,-88.4 379.73,-178.57zm-356.21 -170.7c-114.95,-76.14 -251.54,-122.83 -399.38,-128.78 -147.84,-5.93 -287.74,29.64 -408.42,96.31 114.95,76.14 251.54,122.84 399.38,128.77 147.84,5.94 287.73,-29.63 408.42,-96.3zm-326.1 -257.26c-97.02,-97.99 -221.21,-171.53 -364.75,-207.51 -143.52,-35.96 -287.71,-29.65 -419.46,11.01 97,97.99 221.21,171.56 364.73,207.51 143.52,35.96 287.71,29.67 419.48,-11.01zm-246.76 -302.52c-77.09,-114.33 -185.4,-209.73 -319.73,-271.76 -134.33,-62.07 -277.17,-82.7 -414.18,-67.28 77.06,114.32 185.4,209.71 319.71,271.75 134.32,62.07 277.16,82.7 414.2,67.29zm-632.34 -530.26c118.58,88.52 254.05,138.28 391.3,151.56 -51.75,-127.8 -137.97,-243.54 -256.55,-332.08 -118.55,-88.5 -254.04,-138.28 -391.29,-151.55 51.76,127.82 137.99,243.56 256.54,332.07zm265.42 -240.08c-22.13,-136.1 -80.56,-268.08 -176.57,-380.66 -95.98,-112.6 -217.08,-191.17 -347.96,-234.52 22.11,136.08 80.54,268.06 176.55,380.66 96,112.58 217.09,191.16 347.98,234.52zm-46.16 -402.01c11.58,-137.4 -13.07,-279.63 -78.87,-412.16 -65.79,-132.52 -164.16,-238.13 -280.62,-311.98 -11.58,137.4 13.07,279.63 78.87,412.15 65.79,132.53 164.16,238.13 280.62,311.99zm20.02 -462.07c47.87,-129.31 62.11,-272.95 34.11,-418.22 -27.97,-145.3 -94.56,-273.36 -187.05,-375.63 -47.88,129.31 -62.13,272.96 -34.14,418.23 28,145.29 94.59,273.35 187.08,375.62zm172.05 -417.38c60.57,-123.89 89.1,-265.37 75.76,-412.72 -13.32,-147.37 -66.79,-281.45 -148.58,-392.44 -60.56,123.87 -89.08,265.37 -75.76,412.72 13.32,147.36 66.79,281.42 148.58,392.44zm503.27 -443.54c99.12,-109.85 161.22,-240.13 187.16,-375.56 -132.06,39.68 -255.29,114.82 -354.41,224.67 -99.11,109.85 -161.22,240.14 -187.16,375.56 132.06,-39.68 255.29,-114.82 354.41,-224.67zm44.65 508.01c-137.84,3.45 -276.53,43.43 -401.09,123.27 -124.59,79.83 -218.87,189.13 -279.59,312.91 137.85,-3.45 276.54,-43.42 401.12,-123.25 124.57,-79.82 218.84,-189.13 279.56,-312.93zm-112.85 -52.76c136.26,-57.68 247.63,-149.49 328.36,-261.27 -136.45,-19.86 -279.89,-3.85 -416.14,53.83 -136.28,57.68 -247.63,149.49 -328.37,261.27 136.44,19.86 279.9,3.85 416.15,-53.83zm-229.99 784.62c98.9,-110.03 160.77,-240.44 186.44,-375.91 -131.98,39.91 -255.07,115.29 -353.98,225.33 -98.9,110.06 -160.77,240.44 -186.46,375.94 131.98,-39.94 255.09,-115.32 354,-225.36zm52.01 409.48c69.67,-130.52 98.52,-271.96 90.99,-409.63 -118.58,70.37 -220.05,173.04 -289.71,303.56 -69.69,130.53 -98.52,271.95 -91,409.64 118.6,-70.38 220.04,-173.03 289.72,-303.57zm148.11 380.73c35.46,-143.64 28.69,-287.82 -12.44,-419.44 -97.65,97.34 -170.79,221.81 -206.26,365.43 -35.49,143.66 -28.69,287.83 12.44,419.45 97.65,-97.35 170.76,-221.8 206.26,-365.44zm218.07 334.15c7.32,-147.77 -26.95,-287.98 -92.5,-409.28 -77.2,114.23 -125.16,250.37 -132.46,398.15 -7.33,147.77 26.93,287.98 92.48,409.31 77.22,-114.25 125.16,-250.38 132.48,-398.18zm77.51 359.85c32.11,144.42 102.32,270.53 197.7,370.14 44.15,-130.64 54.31,-274.6 22.19,-419.05 -32.12,-144.41 -102.33,-270.52 -197.7,-370.13 -44.18,130.62 -54.32,274.61 -22.19,419.04zm687.31 565.85c7.73,-137.67 -20.86,-279.13 -90.33,-409.78 -69.47,-130.64 -170.75,-233.47 -289.21,-304.03 -7.75,137.67 20.85,279.14 90.32,409.78 69.46,130.64 170.75,233.46 289.22,304.03zm1277.24 78.54c-123.7,-41.89 -250.57,-50.97 -371.22,-31.98 -135.89,-12.09 -273.46,5.61 -404.32,52.01 -130.87,-46.4 -268.44,-64.1 -404.33,-52.01 -120.66,-18.99 -247.51,-9.91 -371.22,31.98 -140.13,47.45 -257.96,130.81 -346.73,236.32 134.6,29.88 278.84,24.48 418.96,-22.98 121.99,-41.29 227.03,-109.8 310.76,-196.46 91.02,4.28 182.01,23.74 269.82,56.1 -104.81,53.83 -203.08,127.34 -289.92,220l86.39 113.43c71.07,-91.66 153.87,-170.68 244.64,-231.23 26.62,-17.14 53.87,-32.93 81.62,-47.53 27.74,14.6 55.02,30.39 81.63,47.53 90.74,60.56 173.56,139.57 244.64,231.23l86.36 -113.43c-86.81,-92.65 -185.1,-166.17 -289.91,-220 87.82,-32.36 178.79,-51.82 269.82,-56.1 83.71,86.65 188.77,155.17 310.75,196.46 140.13,47.46 284.39,52.86 418.99,22.98 -88.76,-105.51 -206.62,-188.88 -346.75,-236.32zm-35.85 -142.64c104.32,90.16 233.84,153.86 379.73,178.57 145.87,24.73 289.15,7.24 417.36,-43.52 -104.32,-90.15 -233.84,-153.85 -379.73,-178.58 -145.89,-24.72 -289.15,-7.24 -417.36,43.53zm755.58 -299.47c-147.83,5.95 -284.41,52.62 -399.38,128.78 120.71,66.66 260.59,102.22 408.42,96.29 147.84,-5.95 284.44,-52.62 399.39,-128.78 -120.69,-66.68 -260.59,-102.24 -408.43,-96.29zm291.46 -335.99c-143.52,35.95 -267.72,109.51 -364.75,207.51 131.77,40.65 275.96,46.96 419.5,10.99 143.52,-35.96 267.7,-109.51 364.73,-207.49 -131.75,-40.68 -275.96,-46.97 -419.48,-11.01zm201.76 -366.8c-134.33,62.07 -242.65,157.43 -319.73,271.77 137.02,15.44 279.88,-5.23 414.21,-67.27 134.3,-62.07 242.62,-157.46 319.71,-271.77 -137.02,-15.44 -279.88,5.23 -414.19,67.27zm-78.7 -106.93c137.25,-13.28 272.74,-63.05 391.29,-151.56 118.58,-88.5 204.82,-204.27 256.55,-332.07 -137.25,13.27 -272.72,63.06 -391.29,151.56 -118.58,88.5 -204.8,204.25 -256.55,332.07zm473.86 -626.18c95.98,-112.58 154.45,-244.56 176.55,-380.66 -130.9,43.36 -251.96,121.94 -347.95,234.52 -96,112.58 -154.45,244.55 -176.58,380.66 130.9,-43.36 251.97,-121.92 347.98,-234.52zm-301.81 -167.48c116.46,-73.86 214.84,-179.46 280.62,-311.99 65.81,-132.52 90.45,-274.75 78.86,-412.15 -116.45,73.85 -214.83,179.46 -280.61,311.98 -65.81,132.53 -90.46,274.76 -78.87,412.16zm-20.02 -462.07c92.48,-102.27 159.08,-230.33 187.08,-375.62 27.97,-145.27 13.74,-288.92 -34.14,-418.23 -92.48,102.27 -159.08,230.33 -187.08,375.63 -27.99,145.27 -13.74,288.91 34.14,418.22zm-23.48 -809.83c13.32,-147.35 -15.21,-288.86 -75.76,-412.73 -81.79,111 -135.26,245.09 -148.58,392.44 -13.32,147.37 15.21,288.83 75.76,412.72 81.79,-111.01 135.26,-245.06 148.58,-392.43zm-297.44 173.59c-25.93,-135.43 -88.03,-265.71 -187.16,-375.58 -99.11,-109.85 -222.35,-185 -354.41,-224.67 25.94,135.43 88.04,265.71 187.16,375.58 99.11,109.85 222.35,185 354.41,224.67zm-119.48 596.25c124.59,79.82 263.26,119.82 401.12,123.27 -60.73,-123.8 -155.01,-233.1 -279.58,-312.93 -124.56,-79.83 -263.25,-119.83 -401.1,-123.28 60.71,123.81 155,233.1 279.56,312.94zm-166.72 -365.69c136.26,57.68 279.69,73.69 416.15,53.83 -80.73,-111.78 -192.09,-203.6 -328.36,-261.27 -136.26,-57.68 -279.69,-73.69 -416.15,-53.83 80.73,111.78 192.11,203.6 328.36,261.27zm397.53 634.05c-98.9,-110.04 -221.99,-185.43 -353.99,-225.33 25.68,135.47 87.55,265.88 186.46,375.92 98.9,110.04 222.01,185.4 353.99,225.33 -25.68,-135.47 -87.55,-265.89 -186.46,-375.92zm70.18 863.62c7.52,-137.7 -21.32,-279.12 -91,-409.63 -69.67,-130.54 -171.13,-233.19 -289.7,-303.58 -7.52,137.7 21.32,279.12 90.98,409.64 69.69,130.53 171.15,233.18 289.72,303.57zm-219.14 23.16c-35.46,-143.64 -108.59,-268.08 -206.26,-365.42 -41.12,131.61 -47.9,275.79 -12.43,419.43 35.47,143.64 108.6,268.08 206.26,365.42 41.13,-131.62 47.92,-275.79 12.43,-419.43zm-436.76 388.15c7.33,147.8 55.27,283.93 132.49,398.18 65.56,-121.33 99.81,-261.54 92.48,-409.31 -7.31,-147.78 -55.27,-283.92 -132.47,-398.15 -65.55,121.3 -99.83,261.51 -92.5,409.28zm-77.5 359.85c32.12,-144.43 21.98,-288.42 -22.19,-419.04 -95.37,99.6 -165.59,225.71 -197.7,370.13 -32.13,144.45 -21.97,288.41 22.19,419.05 95.36,-99.6 165.58,-225.71 197.7,-370.14zm-398.09 261.82c69.46,-130.64 98.07,-272.11 90.32,-409.78 -118.46,70.56 -219.77,173.39 -289.21,304.03 -69.48,130.65 -98.08,272.11 -90.33,409.78 118.47,-70.57 219.75,-173.39 289.22,-304.03zm-842.85 -1761.71l106.12 0 218.29 0 0 -18.12 15.55 -16.81 -233.83 0 -106.12 0 -233.82 0 15.54 16.81 0 18.12 218.29 0zm105.4 -175.08l-104.68 0 -234.54 0 0 17.15 234.54 0 104.68 0 234.55 0 0 -17.15 -234.55 0zm-516.11 0l-63.93 0 -143.24 0 0 17.15 143.24 0 63.93 0 143.22 0 0 -17.15 -143.22 0zm0 490.52l-63.93 0 -143.24 0 0 17.15 143.24 0 63.93 0 143.22 0 0 -17.15 -143.22 0zm533.7 315.4l-142.12 0 -318.44 0 0 17.54 318.44 0 142.12 0 318.43 0 0 -17.54 -318.43 0zm25.57 35.05l-193.28 0 -433.01 0 0 17.52 433.01 0 193.28 0 433.01 0 0 -17.52 -433.01 0zm27.73 35.05l-245.08 0 -549.09 0 0 17.51 549.09 0 245.08 0 549.07 0 0 -17.51 -549.07 0zm136.77 -928.57l0 35.05 -206.85 0 -106.3 0 -206.84 0 0 -35.05 519.98 0zm-307.27 -54.18l94.52 0 203.65 0 15.48 -22 -219.13 0 -94.52 0 -219.11 0 15.98 22 203.13 0zm29.74 60.05l35.05 0 0 -63.66 -35.05 0 0 63.66zm-232.86 0l35.04 0 0 -63.66 -35.04 0 0 63.66zm466.27 0l35.05 0 0 -63.66 -35.05 0 0 63.66zm-398.41 642.32l18.19 -34.05 -18.19 0 0 -20.14 -17.75 -15.88 -65.18 0 -17.76 15.88 0 20.14 -18.19 0 18.19 34.05 100.68 0zm-17.76 -332.86l-65.18 0 0 245.26 65.18 0 0 -245.26zm5.91 -17.52l16.29 -52.55 -109 0 16.31 52.55 76.4 0zm-20.92 -122.62l0 -60.58 15.17 -27.4 -65.75 0 15.49 27.4 0 60.58 35.09 0zm-67.91 578.1l100.67 0 0 -87.59 -100.67 0 0 87.59zm118.86 34.97l-18.19 -17.44 -100.68 0 -18.19 17.44 0 52.65 137.06 0 0 -52.65zm448.06 -140.07l18.2 -34.05 -18.2 0 0 -20.14 -17.74 -15.88 -65.18 0 -17.74 15.88 0 20.14 -18.22 0 18.22 34.05 100.65 0zm-17.73 -332.86l-65.19 0 0 245.26 65.19 0 0 -245.26zm5.89 -17.52l16.29 -52.55 -109.01 0 16.31 52.55 76.41 0zm-20.92 -122.62l0 -60.58 15.16 -27.4 -65.75 0 15.5 27.4 0 60.58 35.09 0zm-67.92 578.1l100.66 0 0 -87.59 -100.66 0 0 87.59zm118.87 34.97l-18.2 -17.44 -100.65 0 -18.22 17.44 0 52.65 137.07 0 0 -52.65zm-482.32 -245.18l52.56 0 0 -35.04 17.51 -35.03 -70.07 0 0 70.07zm360.84 0l-52.56 0 0 -35.04 -17.51 -35.03 70.07 0 0 70.07zm12.32 -543.07l0 -2.16 -1.36 0c1.08,-1.02 1.74,-2.39 1.74,-3.94 0,-1.35 -0.53,-2.58 -1.4,-3.58l0 0c-2.54,-3.21 -1.67,-5.33 0.47,-8.51l-0.02 0c0.59,-0.89 0.95,-1.91 0.95,-3.03 0,-1.52 -0.66,-2.9 -1.74,-3.94l1.36 0 0 -3.45 -1.36 0c1.08,-1.04 1.74,-2.41 1.74,-3.94 0,-1.37 -0.53,-2.6 -1.4,-3.6l0 0c-2.54,-3.22 -1.67,-5.31 0.47,-8.51l-0.02 0c0.59,-0.89 0.95,-1.9 0.95,-3.02 0,-1.53 -0.66,-2.91 -1.74,-3.94l1.36 0 0 -2.52 -11.96 0 0 2.52 1.35 0c-1.08,1.03 -1.74,2.41 -1.74,3.94 0,1.2 0.4,2.3 1.11,3.21 1.94,3.03 2.64,5.23 0.31,8.3 -0.89,0.98 -1.42,2.25 -1.42,3.62 0,1.53 0.66,2.9 1.74,3.94l-1.35 0 0 3.45 1.35 0c-1.08,1.04 -1.74,2.42 -1.74,3.94 0,1.19 0.4,2.31 1.11,3.22 1.94,3.03 2.64,5.23 0.31,8.31 -0.89,0.97 -1.42,2.24 -1.42,3.59 0,1.55 0.66,2.92 1.74,3.94l-1.35 0 0 2.16 -32.51 0 0 -2.16 -1.35 0c1.08,-1.02 1.75,-2.39 1.75,-3.94 0,-1.35 -0.53,-2.58 -1.39,-3.58l0 0c-2.55,-3.21 -1.68,-5.33 0.46,-8.51l-0.04 0c0.61,-0.89 0.97,-1.91 0.97,-3.03 0,-1.52 -0.67,-2.9 -1.75,-3.94l1.35 0 0 -3.45 -1.35 0c1.08,-1.04 1.75,-2.41 1.75,-3.94 0,-1.37 -0.53,-2.6 -1.39,-3.6l0 0c-2.55,-3.22 -1.68,-5.31 0.46,-8.51l-0.04 0c0.61,-0.89 0.97,-1.9 0.97,-3.02 0,-1.53 -0.67,-2.91 -1.75,-3.94l1.35 0 0 -2.52 -11.97 0 0 2.52 1.38 0c-1.08,1.03 -1.74,2.41 -1.74,3.94 0,1.2 0.41,2.3 1.08,3.21 1.97,3.03 2.68,5.23 0.35,8.3 -0.9,0.98 -1.43,2.25 -1.43,3.62 0,1.53 0.66,2.9 1.74,3.94l-1.38 0 0 3.45 1.38 0c-1.08,1.04 -1.74,2.42 -1.74,3.94 0,1.19 0.41,2.31 1.08,3.22 1.97,3.03 2.68,5.23 0.35,8.31 -0.9,0.97 -1.43,2.24 -1.43,3.59 0,1.55 0.66,2.92 1.74,3.94l-1.38 0 0 2.16 -32.48 0 0 -2.16 -1.35 0c1.08,-1.02 1.73,-2.39 1.73,-3.94 0,-1.35 -0.53,-2.58 -1.4,-3.58l0 0c-2.54,-3.21 -1.66,-5.33 0.47,-8.51l-0.02 0c0.59,-0.89 0.95,-1.91 0.95,-3.03 0,-1.52 -0.65,-2.9 -1.73,-3.94l1.35 0 0 -3.45 -1.35 0c1.08,-1.04 1.73,-2.41 1.73,-3.94 0,-1.37 -0.53,-2.6 -1.4,-3.6l0 0c-2.54,-3.22 -1.66,-5.31 0.47,-8.51l-0.02 0c0.59,-0.89 0.95,-1.9 0.95,-3.02 0,-1.53 -0.65,-2.91 -1.73,-3.94l1.35 0 0 -2.52 -11.96 0 0 2.52 1.35 0c-1.05,1.03 -1.73,2.41 -1.73,3.94 0,1.2 0.4,2.3 1.1,3.21 1.95,3.03 2.64,5.23 0.31,8.3 -0.88,0.98 -1.41,2.25 -1.41,3.62 0,1.53 0.68,2.9 1.73,3.94l-1.35 0 0 3.45 1.35 0c-1.05,1.04 -1.73,2.42 -1.73,3.94 0,1.19 0.4,2.31 1.1,3.22 1.95,3.03 2.64,5.23 0.31,8.31 -0.88,0.97 -1.41,2.24 -1.41,3.59 0,1.55 0.68,2.92 1.73,3.94l-1.35 0 0 2.16 -32.51 0 0 -2.16 -1.35 0c1.08,-1.02 1.74,-2.39 1.74,-3.94 0,-1.35 -0.51,-2.58 -1.38,-3.58l0 0c-2.54,-3.21 -1.7,-5.33 0.46,-8.51l-0.04 0c0.61,-0.89 0.96,-1.91 0.96,-3.03 0,-1.52 -0.66,-2.9 -1.74,-3.94l1.35 0 0 -3.45 -1.35 0c1.08,-1.04 1.74,-2.41 1.74,-3.94 0,-1.37 -0.51,-2.6 -1.38,-3.6l0 0c-2.54,-3.22 -1.7,-5.31 0.46,-8.51l-0.04 0c0.61,-0.89 0.96,-1.9 0.96,-3.02 0,-1.53 -0.66,-2.91 -1.74,-3.94l1.35 0 0 -2.52 -11.96 0 0 2.52 1.37 0c-1.07,1.03 -1.73,2.41 -1.73,3.94 0,1.2 0.38,2.3 1.08,3.21 1.97,3.03 2.65,5.23 0.34,8.3 -0.89,0.98 -1.42,2.25 -1.42,3.62 0,1.53 0.66,2.9 1.73,3.94l-1.37 0 0 3.45 1.37 0c-1.07,1.04 -1.73,2.42 -1.73,3.94 0,1.19 0.38,2.31 1.08,3.22 1.97,3.03 2.65,5.23 0.34,8.31 -0.89,0.97 -1.42,2.24 -1.42,3.59 0,1.55 0.66,2.92 1.73,3.94l-1.37 0 0 2.16 -93.82 0 0 -2.16 -1.35 0c1.05,-1.02 1.73,-2.39 1.73,-3.94 0,-1.35 -0.53,-2.62 -1.41,-3.59 -2.33,-3.08 -1.64,-5.28 0.31,-8.31 0.7,-0.91 1.1,-2.03 1.1,-3.22 0,-1.52 -0.68,-2.9 -1.73,-3.94l1.35 0 0 -3.45 -1.35 0c1.05,-1.04 1.73,-2.41 1.73,-3.94 0,-1.37 -0.53,-2.64 -1.41,-3.62 -2.33,-3.07 -1.64,-5.27 0.31,-8.3 0.7,-0.91 1.1,-2.01 1.1,-3.21 0,-1.53 -0.68,-2.91 -1.73,-3.94l1.35 0 0 -2.52 -11.97 0 0 2.52 1.36 0c-1.08,1.03 -1.73,2.41 -1.73,3.94 0,1.12 0.33,2.13 0.95,3.02l-0.02 0c2.13,3.2 3,5.29 0.44,8.51l0.02 0c-0.87,1 -1.39,2.23 -1.39,3.6 0,1.53 0.65,2.9 1.73,3.94l-1.36 0 0 3.45 1.36 0c-1.08,1.04 -1.73,2.42 -1.73,3.94 0,1.12 0.33,2.14 0.95,3.03l-0.02 0c2.13,3.18 3,5.3 0.44,8.51l0.02 0c-0.87,1 -1.39,2.23 -1.39,3.58 0,1.55 0.65,2.92 1.73,3.94l-1.36 0 0 2.16 -32.5 0 0 -2.16 -1.36 0c1.08,-1.02 1.75,-2.39 1.75,-3.94 0,-1.35 -0.53,-2.62 -1.43,-3.59 -2.33,-3.08 -1.62,-5.28 0.34,-8.31 0.68,-0.91 1.09,-2.03 1.09,-3.22 0,-1.52 -0.67,-2.9 -1.75,-3.94l1.36 0 0 -3.45 -1.36 0c1.08,-1.04 1.75,-2.41 1.75,-3.94 0,-1.37 -0.53,-2.64 -1.43,-3.62 -2.33,-3.07 -1.62,-5.27 0.34,-8.3 0.68,-0.91 1.09,-2.01 1.09,-3.21 0,-1.53 -0.67,-2.91 -1.75,-3.94l1.36 0 0 -2.52 -11.96 0 0 2.52 1.37 0c-1.1,1.03 -1.75,2.41 -1.75,3.94 0,1.12 0.35,2.13 0.97,3.02l-0.04 0c2.14,3.2 3.01,5.29 0.46,8.51l0 0c-0.86,1 -1.39,2.23 -1.39,3.6 0,1.53 0.65,2.9 1.75,3.94l-1.37 0 0 3.45 1.37 0c-1.1,1.04 -1.75,2.42 -1.75,3.94 0,1.12 0.35,2.14 0.97,3.03l-0.04 0c2.14,3.18 3.01,5.3 0.46,8.51l0 0c-0.86,1 -1.39,2.23 -1.39,3.58 0,1.55 0.65,2.92 1.75,3.94l-1.37 0 0 2.16 -32.49 0 0 -2.16 -1.35 0c1.06,-1.02 1.74,-2.39 1.74,-3.94 0,-1.35 -0.53,-2.62 -1.42,-3.59 -2.34,-3.08 -1.63,-5.28 0.31,-8.31 0.7,-0.91 1.11,-2.03 1.11,-3.22 0,-1.52 -0.68,-2.9 -1.74,-3.94l1.35 0 0 -3.45 -1.35 0c1.06,-1.04 1.74,-2.41 1.74,-3.94 0,-1.37 -0.53,-2.64 -1.42,-3.62 -2.34,-3.07 -1.63,-5.27 0.31,-8.3 0.7,-0.91 1.11,-2.01 1.11,-3.21 0,-1.53 -0.68,-2.91 -1.74,-3.94l1.35 0 0 -2.52 -11.96 0 0 2.52 1.36 0c-1.08,1.03 -1.74,2.41 -1.74,3.94 0,1.12 0.34,2.13 0.95,3.02l-0.02 0c2.14,3.2 3.01,5.29 0.45,8.51l0.02 0c-0.87,1 -1.4,2.23 -1.4,3.6 0,1.53 0.66,2.9 1.74,3.94l-1.36 0 0 3.45 1.36 0c-1.08,1.04 -1.74,2.42 -1.74,3.94 0,1.12 0.34,2.14 0.95,3.03l-0.02 0c2.14,3.18 3.01,5.3 0.45,8.51l0.02 0c-0.87,1 -1.4,2.23 -1.4,3.58 0,1.55 0.66,2.92 1.74,3.94l-1.36 0 0 2.16 -32.5 0 0 -2.16 -1.36 0c1.08,-1.02 1.74,-2.39 1.74,-3.94 0,-1.35 -0.53,-2.62 -1.42,-3.59 -2.33,-3.08 -1.63,-5.28 0.34,-8.31 0.68,-0.91 1.08,-2.03 1.08,-3.22 0,-1.52 -0.66,-2.9 -1.74,-3.94l1.36 0 0 -3.45 -1.36 0c1.08,-1.04 1.74,-2.41 1.74,-3.94 0,-1.37 -0.53,-2.64 -1.42,-3.62 -2.33,-3.07 -1.63,-5.27 0.34,-8.3 0.68,-0.91 1.08,-2.01 1.08,-3.21 0,-1.53 -0.66,-2.91 -1.74,-3.94l1.36 0 0 -2.52 -11.97 0 0 2.52 1.38 0c-1.1,1.03 -1.76,2.41 -1.76,3.94 0,1.12 0.36,2.13 0.98,3.02l-0.05 0c2.14,3.2 3.01,5.29 0.47,8.51l0 0c-0.87,1 -1.4,2.23 -1.4,3.6 0,1.53 0.66,2.9 1.76,3.94l-1.38 0 0 3.45 1.38 0c-1.1,1.04 -1.76,2.42 -1.76,3.94 0,1.12 0.36,2.14 0.98,3.03l-0.05 0c2.14,3.18 3.01,5.3 0.47,8.51l0 0c-0.87,1 -1.4,2.23 -1.4,3.58 0,1.55 0.66,2.92 1.76,3.94l-1.38 0 0 2.16 384.5 0zm-12.31 455.42l-86.22 0 0 -17.5 68.74 0c-0.21,-89.64 -73.21,-162.49 -162.9,-162.49 -89.69,0 -162.68,72.85 -162.89,162.49l68.63 0 0 17.5 -86.11 0 0 -17.09c0,-99.47 80.92,-180.39 180.38,-180.39 99.46,0 180.39,80.91 180.39,180.39l0 17.09zm-77.48 384.69l-205.92 0 0 -402.2c0,-56.77 46.21,-102.97 102.95,-102.97 56.77,0 102.96,46.21 102.96,102.97l0 402.2zm-188.42 -17.49l170.93 0 0 -384.71c0,-47.14 -38.34,-85.45 -85.47,-85.45 -47.12,0 -85.45,38.32 -85.45,85.45l0 384.71zm-302.04 -577.08l-62.13 0 0 -17.49 44.22 0c-4.41,-45.95 -43.25,-82.01 -90.33,-82.01 -47.07,0 -85.9,36.07 -90.31,82.01l44.2 0 0 17.49 -62.11 0 0 -8.75c0,-59.69 48.56,-108.24 108.22,-108.24 59.69,0 108.24,48.56 108.24,108.24l0 8.75zm-55.17 191.82l-106.13 0 0 -204.06c0,-29.27 23.81,-53.07 53.07,-53.07 29.24,0 53.07,23.8 53.07,53.07l0 204.06zm-88.64 -17.49l71.16 0 0 -186.57c0,-19.63 -15.97,-35.57 -35.58,-35.57 -19.63,0 -35.58,15.94 -35.58,35.57l0 186.57zm1060.4 -367.32l-63.93 0 -143.22 0 0 17.15 143.22 0 63.93 0 143.22 0 0 -17.15 -143.22 0zm0 490.52l-63.93 0 -143.22 0 0 17.15 143.22 0 63.93 0 143.22 0 0 -17.15 -143.22 0zm76.26 -297.53l-62.13 0 0 -17.49 44.22 0c-4.41,-45.95 -43.24,-82.01 -90.31,-82.01 -47.11,0 -85.94,36.07 -90.34,82.01l44.21 0 0 17.49 -62.13 0 0 -8.75c0,-59.69 48.58,-108.24 108.26,-108.24 59.68,0 108.22,48.56 108.22,108.24l0 8.75zm-55.16 191.82l-106.13 0 0 -204.06c0,-29.27 23.81,-53.07 53.07,-53.07 29.26,0 53.07,23.8 53.07,53.07l0 204.06zm-88.64 -17.49l71.16 0 0 -186.57c0,-19.63 -15.97,-35.57 -35.58,-35.57 -19.61,0 -35.58,15.94 -35.58,35.57l0 186.57zm-760.78 731.04l-33.29 5.4 0 -35.85 76.09 -11.42 0 207.39 -42.81 0 0 -165.52zm143.64 166.79c-7.82,-1.27 -15.44,-3.18 -22.83,-5.7l0 -36.8c13.3,5.29 29.05,7.94 47.24,7.94 17.13,0 30.17,-3.71 39.15,-11.1 9,-7.41 13.49,-17.55 13.49,-30.45l0 -9.82c-6.54,4.63 -14.33,8.23 -23.31,10.78 -8.98,2.54 -17.49,3.81 -25.52,3.81 -23.91,0 -41.67,-5.83 -53.29,-17.45 -11.63,-11.63 -17.44,-28.44 -17.44,-50.42 0,-21.37 6.61,-38.27 19.82,-50.74 13.22,-12.47 33.14,-18.72 59.78,-18.72 26.86,0 46.95,6.61 60.27,19.83 13.3,13.21 19.97,33.34 19.97,60.41l0 43.77c0,16.9 -3.66,31.91 -10.95,45.02 -7.28,13.1 -17.77,23.31 -31.38,30.59 -13.64,7.31 -29.56,10.95 -47.73,10.95 -10.36,0 -19.46,-0.63 -27.27,-1.9zm57.09 -107.82c7.17,-2.52 13.82,-5.8 19.96,-9.83l0 -19.33c0,-26.64 -13.42,-39.96 -40.27,-39.96 -13.32,0 -23.46,3.23 -30.46,9.66 -6.96,6.46 -10.43,15.29 -10.43,26.49 0,12.26 3.05,21.48 9.19,27.59 6.12,6.13 16.47,9.19 31.06,9.19 6.76,0 13.74,-1.27 20.95,-3.81zm99.55 85.94c5.07,-10.99 11.74,-21.09 19.97,-30.28 8.26,-9.22 19.23,-19.93 32.97,-32.19l8.26 -7.3c9.93,-9.09 16.98,-15.8 21.09,-20.14 4.13,-4.32 7.08,-8.77 8.88,-13.3 1.79,-4.55 2.69,-10.33 2.69,-17.3 0,-9.72 -3.16,-17.07 -9.51,-22.02 -6.33,-4.98 -15.65,-7.46 -27.91,-7.46 -16.29,0 -32.66,3.27 -49.15,9.83l0 -37.74c7.83,-2.75 17.06,-4.93 27.74,-6.5 10.67,-1.59 20.98,-2.39 30.93,-2.39 23.26,0 40.94,5.76 53.11,17.3 12.16,11.52 18.24,27.53 18.24,48.02 0,12.92 -3.07,24.21 -9.19,33.95 -6.15,9.72 -15.44,19.97 -27.91,30.75l-5.09 4.45c-9.5,8.23 -17.38,15.37 -23.6,21.4 -6.25,6.02 -11.48,12.2 -15.72,18.55l83.4 0 0 32.97 -139.2 0 0 -20.6zm219.75 21.24c-11.2,-1.69 -20.41,-4.13 -27.59,-7.3l0 -37.08c7.18,3.16 15.75,5.66 25.69,7.43 9.95,1.8 19.14,2.72 27.59,2.72 14.8,0 25.64,-2.4 32.5,-7.14 6.88,-4.77 10.29,-12.64 10.29,-23.63 0,-10.36 -2.52,-17.77 -7.6,-22.19 -5.06,-4.45 -14.38,-6.68 -27.89,-6.68l-61.51 0 0 -24.09 5.38 -86.88 121.43 0 -3.16 32.97 -81.81 0 -2.83 45.04 30.74 0c24.31,0 42.16,5.27 53.6,15.86 11.41,10.57 17.13,26.43 17.13,47.56 0,20.5 -6.84,36.62 -20.46,48.37 -13.64,11.73 -33.58,17.59 -59.78,17.59 -9.95,0 -20.51,-0.84 -31.72,-2.54zm-1131.49 -2164.06l0 2012.9 910.97 526.13 910.95 -526.17 0 -2012.86 -1821.92 0zm948.43 168.54l148.43 0 0 37.33 -101.52 0 0 48.9 89.71 0 0 37.02 -89.71 0 0 86.19 -46.91 0 0 -209.44zm-224.78 0l173.04 0 0 37.01 -62.91 0 0 172.43 -46.91 0 0 -172.43 -63.23 0 0 -37.01zm1028.22 1803.86l-840.89 485.48 -840.9 -485.48 0 -1446.84 1681.8 0 0 1446.84z"/>
  <path class="fil0" d="M6394.13 2093.29l0 -587.52 -102.16 0 -185.19 380.43 -186.12 -380.43 -102.16 0 0 587.52 98.52 0 0 -426.05 159.65 324.8 60.2 0 158.74 -324.8 0 426.05 98.52 0zm258.35 -151.44l236.28 0 58.38 151.43 102.18 0 -222.61 -587.51 -111.29 0 -224.42 587.51 103.1 0 58.38 -151.43zm117.69 -345.75l102.15 269.12 -204.33 0 102.17 -269.12zm621.17 506.31c49.87,0 92.59,-4.57 128.17,-13.68 35.58,-9.13 64.33,-20.66 86.22,-34.68l0 -282.8 -231.73 0 0 64.77 146.89 0 0 164.21c-32.25,12.17 -74.51,18.25 -126.82,18.25 -129.53,0 -194.31,-69.03 -194.31,-207.08 0,-77.22 15.65,-134.86 46.99,-172.89 31.32,-37.99 83.15,-57.03 155.54,-57.03 60.21,0 115.55,9.13 166.03,27.38l0 -85.75c-51.1,-17.64 -109.17,-26.45 -174.25,-26.45 -97.92,0 -171.51,27.68 -220.76,83.02 -49.27,55.34 -73.9,132.57 -73.9,231.71 0,91.21 24.92,162.53 74.8,213.92 49.85,51.42 122.24,77.09 217.12,77.09zm492.54 -9.12l98.53 0 0 -218.04 210.74 -369.49 -103.09 0 -156.92 285.55 -156.9 -285.55 -103.1 0 210.75 369.49 0 218.04zm394.18 0l58.38 -151.44 236.28 0 58.4 151.44 102.18 0 -222.63 -587.52 -111.26 0 -224.45 587.52 103.1 0zm176.07 -497.19l102.18 269.12 -204.36 0 102.17 -269.12zm475.5 289.18l110.37 0c21.28,0 36.8,3.2 46.52,9.59 9.73,6.37 18.26,17.79 25.56,34.2l72.06 164.21 102.19 0 -73.9 -170.6c-6.7,-16.41 -13.1,-29.04 -19.17,-37.85 -6.08,-8.83 -14.29,-16.87 -24.63,-24.18 38.31,-11.56 67.97,-31.78 88.93,-60.66 20.99,-28.89 31.49,-64.34 31.49,-106.3 0,-59.58 -15.5,-105.82 -46.53,-138.65 -31.02,-32.86 -78.44,-49.27 -142.3,-49.27l-270.04 0 0 587.5 99.44 0 0 -208zm0 -301.96l153.25 0c71.18,0 106.74,36.8 106.74,110.37 0,74.22 -38.65,111.32 -115.87,111.32l-144.12 0 0 -221.7zm992.52 509.97l99.44 0 0 -509.96 187.03 0 0 -77.56 -474.39 0 0 77.56 187.92 0 0 509.96zm784.58 -76.63l-310.16 0 0 -178.82 276.41 0 0 -76.62 -276.41 0 0 -177.89 310.16 0 0 -77.55 -409.61 0 0 587.51 409.61 0 0 -76.62zm508.48 -80.27c0,-44.39 -13.38,-80.58 -40.15,-108.56 -26.76,-27.97 -74.48,-50.78 -143.21,-68.44 -39.54,-9.72 -69.19,-18.69 -88.96,-26.91 -19.75,-8.19 -33.9,-17.62 -42.41,-28.27 -8.53,-10.65 -12.79,-24.78 -12.79,-42.43 0,-29.19 11.56,-49.86 34.69,-62.03 23.1,-12.18 57.76,-18.25 104,-18.25 55.95,0 107.03,8.83 153.26,26.45l0 -87.58c-18.87,-6.67 -43.32,-12.32 -73.46,-16.88 -30.09,-4.55 -61.28,-6.83 -93.48,-6.83 -73.63,0 -129.56,14.44 -167.87,43.32 -38.33,28.9 -57.49,69.5 -57.49,121.8 0,44.4 12.77,79.22 38.33,104.47 25.56,25.24 69.94,46.05 133.2,62.48 42.54,10.95 74.49,20.69 95.77,29.2 21.28,8.52 36.63,18.7 46.08,30.56 9.42,11.86 14.14,27.82 14.14,47.9 0,31.64 -11.11,53.23 -33.3,64.78 -22.2,11.56 -57.94,17.34 -107.19,17.34 -59.63,0 -117.68,-10.97 -174.26,-32.87l0 87.59c46.23,19.46 107.35,29.19 183.39,29.19 76.01,0 133.63,-14.59 172.86,-43.8 39.24,-29.2 58.85,-69.94 58.85,-122.23zm249.33 156.91l99.44 0 0 -509.96 187.02 0 0 -77.56 -474.38 0 0 77.56 187.92 0 0 509.96zm867.58 -587.52l-98.53 0 0 432.43 -306.51 -432.43 -87.57 0 0 587.53 99.43 0 0 -431.51 305.6 431.51 87.58 0 0 -587.53zm541.51 510.89l-310.16 0 0 -178.82 276.41 0 0 -76.62 -276.41 0 0 -177.89 310.16 0 0 -77.55 -409.61 0 0 587.51 409.61 0 0 -76.62zm422.11 76.63l222.61 -587.52 -103.1 0 -176.06 480.78 -176.07 -480.78 -103.09 0 224.42 587.52 111.29 0zm729.08 -76.63l-310.16 0 0 -178.82 276.4 0 0 -76.62 -276.4 0 0 -177.89 310.16 0 0 -77.55 -409.61 0 0 587.51 409.61 0 0 -76.62zm503.21 0l-301.05 0 0 -510.89 -99.43 0 0 587.51 400.48 0 0 -76.62zm88.58 76.63l409.61 0 0 -76.62 -310.17 0 0 -178.82 276.42 0 0 -76.63 -276.42 0 0 -177.88 310.17 0 0 -77.56 -409.61 0 0 587.52zm308.34 -789.13l-87.57 0 -68.42 161.48 79.36 0 76.62 -161.48zm426.4 455.23c-39.53,-9.72 -69.2,-18.7 -88.94,-26.91 -19.78,-8.22 -33.91,-17.64 -42.44,-28.29 -8.51,-10.64 -12.77,-24.78 -12.77,-42.42 0,-29.2 11.56,-49.87 34.69,-62.04 23.1,-12.16 57.76,-18.25 103.98,-18.25 55.96,0 107.05,8.83 153.26,26.46l0 -87.57c-18.85,-6.69 -43.33,-12.32 -73.44,-16.87 -30.09,-4.58 -61.28,-6.87 -93.5,-6.87 -73.61,0 -129.54,14.46 -167.85,43.35 -38.32,28.91 -57.49,69.5 -57.49,121.79 0,44.41 12.77,79.23 38.31,104.45 25.56,25.24 69.94,46.08 133.2,62.49 42.57,10.95 74.51,20.69 95.79,29.2 21.28,8.54 36.64,18.7 46.08,30.55 9.42,11.89 14.15,27.85 14.15,47.93 0,31.61 -11.12,53.21 -33.32,64.75 -22.21,11.56 -57.93,17.34 -107.2,17.34 -59.6,0 -117.68,-10.94 -174.24,-32.84l0 87.57c46.22,19.49 107.35,29.2 183.39,29.2 75.99,0 133.63,-14.59 172.87,-43.78 39.22,-29.21 58.85,-69.95 58.85,-122.24 0,-44.41 -13.39,-80.59 -40.15,-108.58 -26.77,-27.95 -74.51,-50.78 -143.23,-68.42zm287.64 333.91l99.42 0 0 -587.52 -99.42 0 0 587.52zm-9820.5 957.88l409.61 0 0 -76.62 -310.19 0 0 -178.82 276.43 0 0 -76.62 -276.43 0 0 -177.89 310.19 0 0 -77.56 -409.61 0 0 587.52zm220.77 -789.13l-68.42 161.48 79.36 0 76.62 -161.48 -87.57 0zm563.69 696.99c-22.2,11.56 -57.94,17.32 -107.19,17.32 -59.63,0 -117.7,-10.92 -174.26,-32.84l0 87.57c46.23,19.48 107.35,29.2 183.39,29.2 76.01,0 133.63,-14.59 172.86,-43.79 39.23,-29.2 58.85,-69.92 58.85,-122.26 0,-44.38 -13.38,-80.56 -40.12,-108.53 -26.79,-27.97 -74.53,-50.78 -143.24,-68.44 -39.54,-9.72 -69.21,-18.7 -88.96,-26.92 -19.75,-8.21 -33.9,-17.62 -42.41,-28.26 -8.53,-10.66 -12.79,-24.78 -12.79,-42.44 0,-29.18 11.57,-49.87 34.69,-62.04 23.1,-12.16 57.77,-18.24 103.98,-18.24 55.97,0 107.05,8.81 153.28,26.45l0 -87.57c-18.87,-6.69 -43.35,-12.33 -73.46,-16.88 -30.09,-4.55 -61.28,-6.84 -93.48,-6.84 -73.63,0 -129.56,14.44 -167.87,43.32 -38.33,28.91 -57.49,69.5 -57.49,121.8 0,44.4 12.77,79.23 38.33,104.47 25.54,25.24 69.94,46.05 133.2,62.49 42.54,10.94 74.49,20.68 95.77,29.18 21.28,8.53 36.63,18.71 46.08,30.57 9.42,11.87 14.14,27.83 14.14,47.88 0,31.66 -11.11,53.24 -33.3,64.8zm1023.1 -64.79c0,-44.39 -13.38,-80.57 -40.15,-108.55 -26.76,-27.98 -74.49,-50.79 -143.22,-68.42 -39.53,-9.74 -69.18,-18.71 -88.95,-26.92 -19.75,-8.21 -33.9,-17.64 -42.41,-28.29 -8.54,-10.63 -12.79,-24.77 -12.79,-42.42 0,-29.19 11.56,-49.86 34.68,-62.04 23.1,-12.15 57.79,-18.25 104.01,-18.25 55.94,0 107.03,8.83 153.25,26.47l0 -87.6c-18.86,-6.67 -43.32,-12.3 -73.45,-16.85 -30.09,-4.58 -61.28,-6.86 -93.48,-6.86 -73.61,0 -129.56,14.46 -167.87,43.35 -38.33,28.88 -57.49,69.49 -57.49,121.78 0,44.41 12.76,79.21 38.32,104.46 25.56,25.24 69.94,46.07 133.21,62.48 42.54,10.95 74.48,20.69 95.77,29.2 21.28,8.54 36.63,18.7 46.07,30.58 9.43,11.84 14.15,27.83 14.15,47.88 0,31.64 -11.12,53.24 -33.31,64.8 -22.19,11.54 -57.94,17.32 -107.18,17.32 -59.63,0 -117.69,-10.95 -174.27,-32.84l0 87.57c46.23,19.48 107.35,29.18 183.39,29.18 76.02,0 133.63,-14.59 172.87,-43.79 39.24,-29.18 58.85,-69.92 58.85,-122.24zm364.72 -430.59l-261.81 0 0 587.52 99.43 0 0 -197.96 158.72 0c61.46,0 110.23,-17.64 146.42,-52.94 36.19,-35.26 54.3,-82.09 54.3,-140.49 0,-58.98 -16.56,-106.42 -49.72,-142.31 -33.14,-35.87 -82.26,-53.83 -147.34,-53.83zm66.6 280.53c-20.68,20.38 -50.16,30.56 -88.48,30.56l-140.49 0 0 -233.55 145.07 0c37.69,0 66.28,10.36 85.73,31.02 19.46,20.69 29.19,49.9 29.19,87.58 0,35.89 -10.35,64.03 -31.02,84.39zm277.52 -216.67c-45.61,48.66 -68.42,125.87 -68.42,231.7 0,102.8 22.96,178.67 68.88,227.62 45.91,48.96 115.7,73.43 209.35,73.43 93.66,0 163.45,-24.47 209.4,-73.43 45.91,-48.96 68.86,-124.82 68.86,-227.62 0,-105.83 -22.8,-183.05 -68.41,-231.7 -45.64,-48.66 -115.55,-73 -209.85,-73 -94.26,0 -164.2,24.34 -209.81,73zm346.2 62.04c28.29,33.46 42.44,90.01 42.44,169.67 0,76.62 -14.32,132 -42.89,166.05 -28.59,34.07 -73.9,51.09 -135.94,51.09 -61.43,0 -106.41,-17.19 -135,-51.53 -28.61,-34.38 -42.88,-89.57 -42.88,-165.61 0,-79.65 14.14,-136.21 42.42,-169.67 28.29,-33.46 73.43,-50.19 135.46,-50.19 62.65,0 108.12,16.73 136.39,50.19zm509.05 263.19c9.72,6.39 18.26,17.79 25.56,34.22l72.06 164.2 102.18 0 -73.9 -170.6c-6.69,-16.41 -13.08,-29.03 -19.16,-37.86 -6.08,-8.81 -14.29,-16.87 -24.63,-24.18 38.31,-11.54 67.98,-31.76 88.93,-60.67 20.99,-28.88 31.49,-64.31 31.49,-106.27 0,-59.61 -15.5,-105.82 -46.52,-138.67 -31.03,-32.84 -78.45,-49.27 -142.31,-49.27l-270.04 0 0 587.51 99.43 0 0 -207.99 110.38 0c21.28,0 36.8,3.17 46.52,9.57zm-156.9 -311.56l153.26 0c71.17,0 106.74,36.83 106.74,110.4 0,74.2 -38.65,111.29 -115.86,111.29l-144.14 0 0 -221.7zm431.03 -77.53l0 77.53 187.92 0 0 509.99 99.44 0 0 -509.99 310.28 0 0 509.99 99.43 0 0 -509.99 187.01 0 0 -77.53 -884.08 0zm1381.02 365.83c0,48.68 -13.4,85.3 -40.15,109.93 -26.79,24.63 -65.09,36.95 -114.93,36.95 -50.51,0 -89.12,-12.32 -115.86,-36.95 -26.79,-24.63 -40.17,-61.26 -40.17,-109.93l0 -365.83 -99.41 0 0 369.49c0,73.59 22.17,129.84 66.59,168.76 44.39,38.94 107.33,58.38 188.86,58.38 80.86,0 143.35,-19.44 187.46,-58.38 44.08,-38.92 66.15,-95.17 66.15,-168.76l0 -369.49 -98.52 0 0 365.83zm464.16 -365.83l-238.1 0 0 587.52 238.1 0c88.16,0 152.94,-23.27 194.32,-69.8 41.33,-46.54 62.02,-119.97 62.02,-220.32 0,-104.6 -20.69,-180.32 -62.02,-227.15 -41.38,-46.84 -106.15,-70.26 -194.32,-70.26zm138.2 428.77c-12.47,31.02 -31.02,52.45 -55.65,64.31 -24.63,11.88 -57.34,17.81 -98.07,17.81l-123.15 0 0 -433.35 123.15 0c42.58,0 76.17,6.55 100.8,19.63 24.63,13.09 42.72,35.43 54.3,67.07 11.52,31.61 17.32,76.01 17.32,133.18 0,56.56 -6.24,100.34 -18.7,131.36zm487.06 -437.9c-94.26,0 -164.21,24.34 -209.81,73 -45.62,48.66 -68.44,125.9 -68.44,231.7 0,102.8 22.95,178.67 68.88,227.62 45.93,48.97 115.71,73.43 209.37,73.43 93.65,0 163.45,-24.46 209.38,-73.43 45.93,-48.96 68.88,-124.82 68.88,-227.62 0,-105.8 -22.81,-183.05 -68.44,-231.7 -45.61,-48.66 -115.54,-73 -209.82,-73zm135.94 470.75c-28.61,34.07 -73.9,51.09 -135.94,51.09 -61.43,0 -106.44,-17.19 -135,-51.53 -28.61,-34.38 -42.9,-89.57 -42.9,-165.61 0,-79.65 14.16,-136.21 42.43,-169.67 28.29,-33.46 73.44,-50.19 135.47,-50.19 62.64,0 108.11,16.73 136.39,50.19 28.29,33.46 42.41,90.01 42.41,169.67 0,76.62 -14.29,132 -42.86,166.05zm541.42 -81.19l-186.1 -380.41 -102.18 0 0 587.49 98.52 0 0 -426.02 159.65 324.77 60.22 0 158.75 -324.77 0 426.02 98.49 0 0 -587.49 -102.15 0 -185.2 380.41zm608.67 -380.42l-224.42 587.52 103.07 0 58.41 -151.44 236.27 0 58.38 151.44 102.19 0 -222.61 -587.52 -111.29 0zm-47.45 359.45l102.18 -269.14 102.16 269.14 -204.35 0zm145.06 -399.58l76.62 -161.47 -87.57 0 -68.44 161.47 79.38 0zm727.27 472.56l-306.54 -432.42 -87.57 0 0 587.52 99.45 0 0 -431.53 305.61 431.53 87.56 0 0 -587.52 -98.51 0 0 432.42zm455.93 -146.87l-156.9 -285.56 -103.09 0 210.75 369.49 0 218.04 98.52 0 0 -218.04 210.75 -369.49 -103.1 0 -156.92 285.56zm357 301.96l99.43 0 0 -587.53 -99.43 0 0 587.53zm-9040.04 957.9l409.61 0 0 -76.62 -310.19 0 0 -178.82 276.43 0 0 -76.62 -276.43 0 0 -177.89 310.19 0 0 -77.54 -409.61 0 0 587.5zm752.51 -257.26l146.88 0 0 164.21c-32.25,12.17 -74.5,18.25 -126.81,18.25 -129.52,0 -194.31,-69.01 -194.31,-207.09 0,-77.23 15.65,-134.88 46.99,-172.88 31.31,-37.99 83.14,-57.03 155.54,-57.03 60.2,0 115.54,9.13 166.03,27.38l0 -85.75c-51.1,-17.64 -109.17,-26.47 -174.25,-26.47 -97.92,0 -171.51,27.7 -220.77,83.02 -49.27,55.35 -73.89,132.59 -73.89,231.72 0,91.22 24.92,162.53 74.8,213.93 49.87,51.39 122.23,77.07 217.12,77.07 49.87,0 92.59,-4.55 128.17,-13.66 35.57,-9.15 64.33,-20.69 86.22,-34.69l0 -282.8 -231.73 0 0 64.78zm559.14 -44.71l-156.9 -285.53 -103.09 0 210.75 369.47 0 218.03 98.52 0 0 -218.03 210.75 -369.47 -103.1 0 -156.92 285.53zm356.98 301.97l409.61 0 0 -76.62 -310.18 0 0 -178.82 276.42 0 0 -76.62 -276.42 0 0 -177.89 310.18 0 0 -77.54 -409.61 0 0 587.5zm487.6 -509.97l187.93 0 0 509.96 99.42 0 0 -509.96 187.04 0 0 -77.53 -474.39 0 0 77.53zm562.85 509.97l409.62 0 0 -76.62 -310.18 0 0 -178.82 276.42 0 0 -76.62 -276.42 0 0 -177.89 310.18 0 0 -77.54 -409.62 0 0 587.5zm800.62 -207.09l-186.11 -380.41 -102.18 0 0 587.49 98.52 0 0 -426.02 159.65 324.77 60.21 0 158.74 -324.77 0 426.02 98.52 0 0 -587.49 -102.16 0 -185.19 380.41z"/>
 </g>
</svg>
